<?xml version="1.0" encoding="UTF-8"?>
<svg xmlns="http://www.w3.org/2000/svg" version="1.1" viewBox="0 0 1025.4 145">
  <defs>
    <style>
      .cls-1 {
        fill: #f16622;
      }

      .cls-2 {
        fill: #f26d21;
      }

      .cls-3 {
        fill: #f36c24;
      }

      .cls-4 {
        fill: #78777a;
      }
    </style>
  </defs>
  <!-- Generator: Adobe Illustrator 28.7.1, SVG Export Plug-In . SVG Version: 1.2.0 Build 142)  -->
  <g>
    <g id="Layer_1">
      <g>
        <g>
          <polygon class="cls-3" points="71.6 36.7 25.2 36.7 11.5 132 89.6 132 92.2 113.6 60.5 113.6 71.6 36.7"/>
          <polygon class="cls-4" points="67 107.1 113.3 107.1 127 11.8 49 11.8 46.3 30.3 78 30.3 67 107.1"/>
        </g>
        <path class="cls-1" d="M194.4,37.5l-.9,6.3h15.7l.9-6.3h-15.7ZM230.5,46.4c.2-1.3.8-2.3,1.7-2.9,1-.6,1.9-.9,3.9-.9s1.2,0,2.4.2c.8,0,1.5.1,1.9.2l.8-5.7c-1.6-.1-2.9-.2-4.1-.2-1.1,0-2.1,0-2.9,0-6.3,0-10.5.6-13.4,1.7-2.9,1.2-4.5,3-4.9,5.6l-.5,3.4h-5.7l-.8,5.7h5.4l-2.6,17.8h14.9l2.6-17.8h4.5l.8-5.7h-4.5l.2-1.3ZM181.5,37.5h-16.4l-4.8,33.8h27.7l.9-6.5h-11.2l3.9-27.2ZM189.8,71.3h15.3l3.4-23.6h-15.3l-3.4,23.6ZM258.6,66c-2,0-3.4-.2-4.2-.6-.8-.4-1.1-1.1-1-2.1l1.4-10h9.8l.8-5.6h-9.6l1.4-8-14.8-.5-1.6,8.5h-4.6l-.8,5.6h4.6l-1.7,11.7c-.3,2.3.6,4,2.8,5.1,2.2,1.1,5.7,1.6,10.5,1.6s3.1,0,4.8-.1c1.7,0,3.6-.2,5.5-.3l.8-5.4c-.4,0-1.1,0-2.1,0-1,0-1.7,0-2.2,0ZM305.6,50.3c-3.8-2.1-9.5-3.2-17.1-3.2s-13.7,1.1-18.1,3.2c-4.4,2.2-6.9,5.2-7.5,9.2-.6,4,1.1,7,4.9,9.2,3.8,2.2,9.6,3.2,17.2,3.2s13.6-1.1,18-3.2c4.4-2.1,6.9-5.2,7.5-9.2.6-4-1.1-7-4.9-9.2ZM294.4,59.4c-.4,2.7-1.3,4.6-2.7,5.8-1.4,1.2-3.4,1.8-6.1,1.8s-4.6-.6-5.6-1.8c-1-1.2-1.4-3.1-1-5.8.4-2.7,1.3-4.6,2.7-5.8,1.4-1.2,3.4-1.8,6.1-1.8s4.6.6,5.6,1.8c1.1,1.2,1.4,3.1,1,5.8ZM362.2,48l-8.6,15.9-4-15.9h-15l-8.3,15.6-3.9-15.6h-13.7l7.7,23h15l8.9-15.1,4.5,15.1h15.3l14.2-23h-12.2Z"/>
        <g>
          <path class="cls-4" d="M441.3,130.9v-3.4h-3v-1.6h4.8v5.8c-1.1,1.1-2.9,1.5-5,1.5-4.1,0-6.5-2.8-6.5-6.5s2.3-6.5,6.5-6.5,3.7.5,4.9,1.5l-.9,1.2c-1.2-.8-2.5-1.2-4-1.2-3.1,0-4.6,2.2-4.6,5s1.6,5,4.6,5,2.5-.3,3.2-.8Z"/>
          <path class="cls-4" d="M448.8,133v-12.6h5.4c2.9,0,4.3,1.5,4.3,3.7s-1.4,3.3-3.1,3.6l3.1,5.3h-2l-3-5.2h-2.9v5.2h-1.7ZM450.5,121.9v4.5h3.6c1.8,0,2.5-1,2.5-2.3s-.7-2.3-2.5-2.3h-3.6Z"/>
          <path class="cls-4" d="M463.7,126.7c0-3.7,2.3-6.5,6.5-6.5s6.5,2.8,6.5,6.5-2.3,6.5-6.5,6.5-6.5-2.8-6.5-6.5ZM474.8,126.7c0-2.8-1.6-5-4.6-5s-4.6,2.2-4.6,5,1.6,5,4.6,5,4.6-2.2,4.6-5Z"/>
          <path class="cls-4" d="M490.9,127.6v-7.1h1.7v7.1c0,3.5-1.6,5.6-5.2,5.6s-5.2-2.2-5.2-5.6v-7.1h1.7v7.1c0,2.4.9,4.2,3.5,4.2s3.5-1.8,3.5-4.2Z"/>
          <path class="cls-4" d="M498.6,133v-12.6h5.4c3,0,4.4,1.5,4.4,4s-1.5,4-4.4,4h-3.6v4.6h-1.7ZM500.3,121.9v5.1h3.6c2,0,2.6-1.1,2.6-2.5s-.6-2.5-2.6-2.5h-3.6Z"/>
          <path class="cls-4" d="M522.3,126.7c0-3.7,2.3-6.5,6.5-6.5s6.5,2.8,6.5,6.5-2.3,6.5-6.5,6.5-6.5-2.8-6.5-6.5ZM533.5,126.7c0-2.8-1.6-5-4.6-5s-4.6,2.2-4.6,5,1.6,5,4.6,5,4.6-2.2,4.6-5Z"/>
          <path class="cls-4" d="M549.1,125.9v1.5h-6.5v5.7h-1.7v-12.6h8.6v1.5h-6.8v4h6.5Z"/>
          <path class="cls-4" d="M569.9,120.2c1.9,0,3.4.5,4.3,1.3l-.9,1.2c-.7-.5-1.8-1-3.5-1-3.1,0-4.6,2.2-4.6,5s1.6,5,4.6,5,2.8-.5,3.5-1l.9,1.2c-1,.8-2.4,1.3-4.3,1.3-4.1,0-6.5-2.8-6.5-6.5s2.3-6.5,6.5-6.5Z"/>
          <path class="cls-4" d="M578.8,126.7c0-3.7,2.3-6.5,6.5-6.5s6.5,2.8,6.5,6.5-2.3,6.5-6.5,6.5-6.5-2.8-6.5-6.5ZM589.9,126.7c0-2.8-1.6-5-4.6-5s-4.6,2.2-4.6,5,1.6,5,4.6,5,4.6-2.2,4.6-5Z"/>
          <path class="cls-4" d="M603.9,130.5l4.4-10.1h2.2v12.6h-1.7v-9.4l-4.1,9.4h-1.5l-4.1-9.4v9.4h-1.7v-12.6h2.2l4.4,10.1Z"/>
          <path class="cls-4" d="M616.4,133v-12.6h5.4c3,0,4.4,1.5,4.4,4s-1.5,4-4.4,4h-3.6v4.6h-1.7ZM618.1,121.9v5.1h3.6c2,0,2.6-1.1,2.6-2.5s-.6-2.5-2.6-2.5h-3.6Z"/>
          <path class="cls-4" d="M629.5,133l5.4-12.6h1.5l5.4,12.6h-1.9l-1.5-3.6h-5.6l-1.5,3.6h-1.9ZM635.7,122.8l-2.2,5.2h4.4l-2.2-5.2Z"/>
          <path class="cls-4" d="M646.9,120.4h2l6.7,9.9v-9.9h1.7v12.6h-2l-6.7-9.9v9.9h-1.7v-12.6Z"/>
          <path class="cls-4" d="M663.2,120.4h1.7v12.6h-1.7v-12.6Z"/>
          <path class="cls-4" d="M679.1,125.9v1.5h-6.5v4.2h6.9v1.5h-8.7v-12.6h8.6v1.5h-6.8v4h6.5Z"/>
          <path class="cls-4" d="M693,122.5c-1.2-.6-2.2-.8-3.5-.8-1.9,0-2.7.7-2.7,1.8s.9,1.7,3,2.2c3.1.7,4.7,1.7,4.7,3.9s-1.7,3.6-4.7,3.6-3.9-.5-5.2-1.3l.8-1.2c1.1.6,2.6,1.1,4.3,1.1s2.9-1,2.9-2.2-.8-1.8-3.2-2.3c-3.3-.7-4.5-1.9-4.5-3.7s1.1-3.3,4.5-3.3,3.1.3,4.3,1l-.8,1.2Z"/>
        </g>
        <rect class="cls-4" x="718.2" y="127.3" width="294.6" height="1.1"/>
        <g>
          <path class="cls-2" d="M426.5,70.2l6.9-32.6h18.9l4.4,20.2,12.8-20.2h17.6l-6.9,32.6h-10.9l5.6-26.2-17,26.2h-8.7l-6.2-26.2-5.6,26.2h-10.9Z"/>
          <path class="cls-2" d="M503.4,66.9c-1.3,1.3-2.9,2.3-4.7,2.9-1.8.6-3.9.9-6.2.9-3.4,0-5.8-.6-7.4-1.7-1.6-1.1-2.1-2.8-1.7-4.9.6-2.9,2.6-4.9,6-6.2,3.4-1.3,8.8-1.9,16.1-2,0,0,0-.1,0-.3,0-.1,0-.2,0-.3.2-1.2,0-2-.5-2.6-.6-.6-1.6-.9-3.1-.9s-2.4.2-3.2.6-1.4,1-1.7,1.9h-10.1c.6-2.5,2.2-4.4,4.9-5.6,2.7-1.2,6.6-1.8,11.6-1.8s8.2.7,10.3,2.2c2,1.4,2.8,3.6,2.1,6.5l-2.5,11.6c-.2.7-.2,1.3-.3,1.7s0,.9,0,1.2h-10.1c0-.5-.1-1.1,0-1.6,0-.6.1-1.1.2-1.7ZM504.5,60.4c-3.5,0-6,.2-7.4.7-1.4.4-2.2,1.2-2.4,2.3-.2.8,0,1.3.6,1.8.5.4,1.4.6,2.5.6,1.9,0,3.3-.4,4.4-1.2,1.1-.8,1.8-2.1,2.2-3.8v-.4Z"/>
          <path class="cls-2" d="M525.8,62.3v.2c-.3,1.1-.1,1.9.5,2.4.6.5,1.7.7,3.3.7s2.3-.2,3-.5c.7-.3,1.2-.8,1.3-1.5.1-.5,0-1-.5-1.3-.4-.3-1.3-.6-2.7-.8-.6-.1-1.5-.3-2.7-.5-3.9-.7-6.5-1.4-7.9-2.3-.7-.5-1.3-1.1-1.5-1.9-.3-.8-.3-1.7-.1-2.7.5-2.4,2.1-4.2,4.8-5.5,2.7-1.2,6.4-1.9,11.1-1.9s7.4.6,9.2,1.8c1.9,1.2,2.5,3.1,2,5.6h-9.8c.2-1,0-1.6-.5-2-.5-.4-1.5-.6-3-.6s-1.6.1-2.2.4c-.6.3-.9.7-1,1.2-.1.5,0,.9.6,1.2.5.3,1.6.7,3.5,1.1.6.1,1.5.3,2.7.6,3.1.7,5.1,1.2,5.9,1.6,1.4.6,2.3,1.4,2.8,2.2.5.8.6,1.9.4,3-.5,2.5-2.2,4.4-5,5.8-2.8,1.3-6.6,2-11.5,2s-8.2-.7-10.2-2c-1.9-1.3-2.6-3.5-2-6.3h0c0,0,9.5,0,9.5,0Z"/>
          <path class="cls-2" d="M561,70.8c-5.7,0-9.8-1-12.3-3-2.5-2-3.3-5-2.5-8.9.8-3.9,2.9-6.8,6.3-8.9,3.4-2,7.9-3.1,13.5-3.1s9.7,1,12.2,3.1c2.5,2,3.3,5,2.5,8.9-.8,3.9-2.9,6.8-6.3,8.8-3.4,2-7.9,3-13.5,3ZM561.9,65.7c2,0,3.6-.6,5-1.8,1.4-1.2,2.3-2.9,2.7-5.1.5-2.2.3-3.9-.6-5.1-.8-1.2-2.2-1.8-4.2-1.8s-3.5.6-4.8,1.8c-1.3,1.2-2.2,2.9-2.7,5.1-.5,2.2-.3,3.9.5,5.1.8,1.2,2.1,1.8,4,1.8Z"/>
          <path class="cls-2" d="M580.2,70.2l4-18.9c.2-.8.3-1.5.3-2.1,0-.6,0-1.2,0-1.7h10.9c0,.4,0,.8,0,1.4,0,.6-.2,1.3-.4,2.3,1.7-1.4,3.4-2.5,5.1-3.2,1.7-.7,3.6-1,5.5-1,3.5,0,6.1.9,7.5,2.6,1.5,1.8,1.8,4.3,1.1,7.7l-2.8,12.9h-10.9l2.7-12.6c.4-1.7.3-3-.2-3.8-.5-.8-1.5-1.2-3.1-1.2s-3.2.5-4.3,1.6c-1.1,1.1-1.9,2.7-2.3,4.8l-2.4,11.2h-10.9Z"/>
          <path class="cls-2" d="M645.7,63.1l-1.5,7.1h-29.4l6.9-32.6h11.6l-5.4,25.5h17.7Z"/>
          <path class="cls-2" d="M645,70.2l4.8-22.7h10.9l-4.8,22.7h-10.9ZM650.5,44.3l1.4-6.6h10.9l-1.4,6.6h-10.9Z"/>
          <path class="cls-2" d="M662.3,70.2l3.7-17.3h-5.4l1.1-5.4h5.4l.7-3.3c.5-2.4,1.7-4.2,3.6-5.4,1.9-1.2,4.6-1.7,8.1-1.7s1.9,0,3,.1c1.1,0,2.3.2,3.6.4l-1,4.9c-.4,0-.9,0-1.5,0s-.9,0-1,0c-1.3,0-2.3.2-2.8.6-.6.4-1,1.2-1.3,2.4l-.4,2h6l-1.1,5.4h-6l-3.7,17.3h-10.9Z"/>
          <path class="cls-2" d="M685.1,63.2l2.3-10.7h-6.2l1.2-5.5h6.2l.9-4.2,11.5-3.3-1.6,7.5h6.2l-1.2,5.5h-6.2l-1.9,8.7c-.3,1.2-.1,2.1.4,2.6.5.5,1.6.7,3.2.7s.7,0,1.2,0,.9,0,1.4,0l-1.2,5.5c-1.6.3-3,.5-4.4.7-1.3.2-2.6.2-3.7.2-3.5,0-5.9-.6-7.2-1.7-1.3-1.2-1.6-3.1-1-5.9Z"/>
        </g>
        <g>
          <path class="cls-3" d="M757.8,70.9l6.8-32h14.1l10.6,21.5,4.6-21.5h10.7l-6.8,32h-14.7l-10.1-21.5-4.6,21.5h-10.7Z"/>
          <path class="cls-3" d="M816.7,71.4c-5.6,0-9.6-1-12.1-2.9-2.4-2-3.3-4.9-2.4-8.7.8-3.8,2.9-6.7,6.2-8.7,3.3-2,7.7-3,13.3-3s9.5,1,12,3c2.5,2,3.3,4.9,2.5,8.8-.8,3.8-2.9,6.7-6.2,8.7-3.3,2-7.7,3-13.3,3ZM817.6,66.5c1.9,0,3.6-.6,4.9-1.8,1.3-1.2,2.2-2.8,2.7-5,.5-2.1.3-3.8-.6-5-.8-1.2-2.2-1.8-4.1-1.8s-3.4.6-4.7,1.8c-1.3,1.2-2.2,2.8-2.6,5-.5,2.2-.3,3.8.5,5,.8,1.2,2.1,1.8,4,1.8Z"/>
          <path class="cls-3" d="M835.5,70.9l3.9-18.6c.2-.8.3-1.5.4-2.2,0-.6,0-1.2,0-1.6h10.7c0,.5,0,1.1,0,1.7,0,.6-.2,1.3-.3,1.9,1.3-1.4,2.7-2.5,4.2-3.2,1.5-.7,3.2-1,5.2-1s.6,0,.8,0c.2,0,.3,0,.5,0l-1.6,7.4c-.5,0-.9,0-1.4,0-.4,0-.8,0-1.2,0-2.7,0-4.6.5-5.9,1.5-1.3,1-2.2,2.8-2.7,5.4l-1.8,8.7h-10.7Z"/>
          <path class="cls-3" d="M865,64l2.2-10.5h-6.1l1.2-5.4h6.1l.9-4.1,11.3-3.3-1.6,7.3h6.1l-1.2,5.4h-6.1l-1.8,8.6c-.3,1.2-.1,2,.4,2.5.5.5,1.6.7,3.2.7s.7,0,1.1,0c.4,0,.9,0,1.3,0l-1.1,5.4c-1.5.3-2.9.5-4.3.7-1.3.2-2.5.2-3.7.2-3.5,0-5.8-.6-7-1.7-1.2-1.1-1.6-3.1-1-5.7Z"/>
          <path class="cls-3" d="M882.8,70.9l6.8-32h10.7l-2.8,13.3c1.6-1.4,3.2-2.4,4.9-3.1,1.7-.7,3.5-1,5.4-1,3.5,0,6,.8,7.5,2.4,1.5,1.6,1.9,4,1.2,7.2l-2.8,13.2h-10.7l2.7-12.7c.3-1.5.2-2.7-.3-3.4-.5-.8-1.5-1.1-3-1.1s-3.1.5-4.2,1.6c-1.1,1-1.8,2.6-2.3,4.7l-2.3,11h-10.7Z"/>
          <path class="cls-3" d="M928.2,61.8v.5c-.4,1.5-.2,2.5.4,3.3.7.7,1.8,1.1,3.5,1.1s2.5-.2,3.3-.7c.9-.5,1.5-1.2,1.9-2.2h9.8c-.7,2.5-2.5,4.4-5.4,5.8-2.9,1.4-6.7,2.1-11.3,2.1s-8.9-.9-11-2.8c-2-1.9-2.6-4.8-1.8-8.8.8-3.9,2.8-6.8,6-8.9,3.2-2,7.4-3.1,12.6-3.1s8.2,1.1,10.1,3.2c1.9,2.1,2.4,5.4,1.5,9.7l-.2.9h-19.4ZM939,57.1v-.3c.3-1.2.1-2.2-.6-2.9-.7-.7-1.8-1-3.3-1s-2.9.3-3.9,1c-1,.7-1.7,1.6-1.9,2.9v.3c0,0,9.8,0,9.8,0Z"/>
          <path class="cls-3" d="M947.4,70.9l3.9-18.6c.2-.8.3-1.5.4-2.2,0-.6,0-1.2,0-1.6h10.7c0,.5,0,1.1,0,1.7,0,.6-.2,1.3-.3,1.9,1.3-1.4,2.7-2.5,4.2-3.2,1.5-.7,3.2-1,5.2-1s.6,0,.8,0c.2,0,.3,0,.5,0l-1.6,7.4c-.5,0-.9,0-1.4,0-.4,0-.8,0-1.2,0-2.7,0-4.6.5-5.9,1.5s-2.2,2.8-2.7,5.4l-1.8,8.7h-10.7Z"/>
          <path class="cls-3" d="M969.1,70.9l3.9-18.6c.2-.8.3-1.4.3-2.1,0-.6,0-1.2,0-1.6h10.7c0,.3,0,.8,0,1.4,0,.6-.2,1.3-.4,2.2,1.6-1.4,3.3-2.4,5-3.1s3.5-1,5.4-1c3.5,0,5.9.9,7.4,2.6,1.4,1.7,1.8,4.2,1.1,7.5l-2.7,12.7h-10.7l2.6-12.4c.4-1.7.3-2.9-.2-3.7-.5-.8-1.5-1.2-3-1.2s-3.1.5-4.2,1.6c-1.1,1-1.8,2.6-2.3,4.7l-2.3,11h-10.7Z"/>
        </g>
        <g>
          <path class="cls-4" d="M812.2,80.7l-2.9,13.7h-3.8l2.9-13.7h-6.6l.6-2.7h17l-.6,2.7h-6.6Z"/>
          <path class="cls-4" d="M825.5,94.6c-1.4,0-2.7-.2-3.7-.6-1-.4-1.9-.9-2.6-1.7-.8-.8-1.3-1.8-1.5-2.8-.3-1.1-.3-2.2,0-3.4.3-1.2.7-2.4,1.5-3.4.7-1.1,1.6-2,2.7-2.8,1-.8,2.2-1.3,3.4-1.7,1.2-.4,2.5-.6,4-.6s2.7.2,3.7.6c1,.4,1.9.9,2.6,1.7.8.8,1.3,1.7,1.5,2.8.3,1.1.3,2.2,0,3.4-.3,1.2-.7,2.4-1.5,3.4-.7,1.1-1.6,2-2.7,2.8-1,.8-2.2,1.3-3.4,1.7-1.2.4-2.5.6-4,.6ZM833.1,86.2c.4-1.7.1-3.1-.7-4.1-.8-1.1-2.1-1.6-3.8-1.6s-3.2.5-4.5,1.6c-1.3,1.1-2.1,2.4-2.5,4.1-.4,1.7-.1,3.1.7,4.2.8,1.1,2.1,1.6,3.8,1.6s3.2-.5,4.5-1.6c1.3-1.1,2.1-2.4,2.5-4.1Z"/>
          <path class="cls-4" d="M841.7,94.4l1.5-6.9-5.8-9.6h4.5l4,6.8,6.8-6.8h3.9l-9.5,9.4-1.5,7.1h-3.8Z"/>
          <path class="cls-4" d="M861.1,94.6c-1.4,0-2.7-.2-3.7-.6-1-.4-1.9-.9-2.6-1.7-.8-.8-1.3-1.8-1.5-2.8-.3-1.1-.3-2.2,0-3.4.3-1.2.7-2.4,1.5-3.4.7-1.1,1.6-2,2.7-2.8,1-.8,2.2-1.3,3.4-1.7,1.2-.4,2.5-.6,4-.6s2.7.2,3.7.6c1,.4,1.9.9,2.6,1.7.8.8,1.3,1.7,1.5,2.8.3,1.1.3,2.2,0,3.4-.3,1.2-.7,2.4-1.5,3.4-.7,1.1-1.6,2-2.7,2.8-1,.8-2.2,1.3-3.4,1.7-1.2.4-2.5.6-4,.6ZM868.7,86.2c.4-1.7.1-3.1-.7-4.1-.8-1.1-2.1-1.6-3.8-1.6s-3.2.5-4.5,1.6c-1.3,1.1-2.1,2.4-2.5,4.1-.4,1.7-.1,3.1.7,4.2.8,1.1,2.1,1.6,3.8,1.6s3.2-.5,4.5-1.6c1.3-1.1,2.1-2.4,2.5-4.1Z"/>
          <path class="cls-4" d="M884.1,80.7l-2.9,13.7h-3.8l2.9-13.7h-6.6l.6-2.7h17l-.6,2.7h-6.6Z"/>
          <path class="cls-4" d="M885.7,94.4l11.9-16.5h4.6l4.7,16.5h-4.3l-1-4h-9.2l-2.8,4h-4ZM894.5,87.6h6.5l-1.7-6.8-4.9,6.8Z"/>
          <path class="cls-4" d="M911.2,77.9h3.8l-3,13.9h9l-.5,2.5h-12.7l3.5-16.5Z"/>
          <path class="cls-4" d="M925,77.9h3.9l-3.5,16.5h-3.9l3.5-16.5Z"/>
          <path class="cls-4" d="M929,94.4l3.5-16.5h13.4l-.5,2.5h-9.7l-.9,4.1h8.9l-.6,2.6h-8.9l-1.6,7.3h-3.7Z"/>
          <path class="cls-4" d="M955.6,80.7l-2.9,13.7h-3.8l2.9-13.7h-6.6l.6-2.7h17l-.6,2.7h-6.6Z"/>
        </g>
        <rect class="cls-4" x="161" y="127.1" width="246.3" height="1.1"/>
      </g>
    </g>
  </g>
</svg>