<svg width="1195" height="95" viewBox="0 0 1195 95" fill="none" xmlns="http://www.w3.org/2000/svg">
<g clip-path="url(#clip0_299_510)">
<path d="M577.92 31.1451H556.424L550.085 75.4177H586.269L587.496 66.8394H572.809L577.92 31.1451Z" fill="#F36C24"/>
<path d="M575.789 63.8284H597.286L603.621 19.5601H567.441L566.209 28.1341H580.901L575.789 63.8284Z" fill="#78777A"/>
<path d="M615.844 63.82L620.767 40.6204H634.222L637.383 54.9975L646.48 40.6204H658.968L654.046 63.82H646.295L650.259 45.1348L638.165 63.82H631.986L627.593 45.1348L623.629 63.82H615.844Z" fill="#231F20"/>
<path d="M670.494 61.4323C669.553 62.3672 668.443 63.0578 667.169 63.5084C665.896 63.959 664.416 64.1864 662.73 64.1864C660.339 64.1864 658.582 63.7779 657.468 62.9609C656.354 62.144 655.954 60.9859 656.27 59.4867C656.703 57.44 658.128 55.9661 660.545 55.0607C662.962 54.1553 666.783 53.6794 672.016 53.6373C672.024 53.6078 672.041 53.5446 672.071 53.4562C672.1 53.3678 672.121 53.3004 672.129 53.2583C672.306 52.4287 672.176 51.8096 671.743 51.4011C671.31 50.9926 670.574 50.7863 669.536 50.7863C668.594 50.7863 667.842 50.9337 667.279 51.2327C666.715 51.5317 666.316 51.9781 666.093 52.5761H658.914C659.326 50.7821 660.494 49.4471 662.419 48.5712C664.34 47.6953 667.085 47.2573 670.646 47.2573C674.206 47.2573 676.501 47.7669 677.956 48.7902C679.41 49.8135 679.914 51.3674 679.473 53.452L677.724 61.6934C677.615 62.2071 677.552 62.6198 677.535 62.9357C677.518 63.2515 677.539 63.5421 677.602 63.8158H670.393C670.335 63.4284 670.314 63.0367 670.33 62.6451C670.347 62.2535 670.402 61.845 670.49 61.4281L670.494 61.4323ZM671.31 56.8083C668.796 56.8083 667.052 56.9642 666.072 57.28C665.093 57.5958 664.521 58.1433 664.353 58.9308C664.239 59.4656 664.374 59.8825 664.752 60.1815C665.131 60.4805 665.723 60.6279 666.535 60.6279C667.854 60.6279 668.91 60.3331 669.696 59.7394C670.482 59.1456 671.003 58.2528 671.255 57.0568L671.31 56.8041V56.8083Z" fill="#231F20"/>
<path d="M686.447 58.1896L686.413 58.3454C686.245 59.1414 686.367 59.7183 686.783 60.0678C687.199 60.4174 687.981 60.5942 689.128 60.5942C690.024 60.5942 690.738 60.4721 691.272 60.2321C691.802 59.992 692.117 59.6383 692.218 59.1793C692.302 58.7918 692.193 58.4886 691.894 58.2738C691.596 58.0591 690.949 57.8569 689.948 57.6674C689.507 57.5832 688.859 57.4695 688.006 57.3221C685.244 56.8504 683.382 56.2988 682.424 55.6713C681.898 55.326 681.529 54.8628 681.327 54.2858C681.121 53.7089 681.096 53.0646 681.247 52.3529C681.613 50.6347 682.748 49.3334 684.656 48.4533C686.564 47.5731 689.196 47.131 692.55 47.131C695.61 47.131 697.8 47.5689 699.12 48.4448C700.44 49.3208 700.919 50.6431 700.554 52.416H693.555C693.677 51.7338 693.555 51.2537 693.197 50.9674C692.836 50.6852 692.13 50.542 691.083 50.542C690.448 50.542 689.931 50.6473 689.532 50.8579C689.133 51.0684 688.893 51.3632 688.813 51.738C688.733 52.1044 688.868 52.3992 689.208 52.6266C689.549 52.854 690.377 53.1109 691.688 53.4057C692.147 53.511 692.781 53.6541 693.597 53.831C695.825 54.3027 697.224 54.6817 697.796 54.9638C698.759 55.4271 699.414 55.9577 699.768 56.5599C700.121 57.1621 700.209 57.8822 700.028 58.7244C699.646 60.5268 698.46 61.8955 696.48 62.822C694.496 63.7484 691.768 64.2117 688.296 64.2117C684.824 64.2117 682.457 63.7316 681.07 62.7714C679.683 61.8113 679.208 60.3036 679.645 58.2486L679.658 58.1854H686.442L686.447 58.1896Z" fill="#231F20"/>
<path d="M711.449 64.2159C707.397 64.2159 704.484 63.5042 702.718 62.0766C700.949 60.649 700.364 58.5392 700.957 55.7387C701.541 52.9803 703.038 50.8747 705.446 49.4176C707.855 47.9606 711.058 47.232 715.056 47.232C719.053 47.232 721.962 47.9564 723.744 49.4092C725.527 50.8621 726.124 52.9803 725.531 55.7724C724.947 58.5307 723.454 60.6279 721.058 62.0639C718.662 63.5 715.459 64.2201 711.449 64.2201V64.2159ZM712.113 60.6279C713.513 60.6279 714.694 60.1984 715.665 59.3393C716.636 58.4802 717.284 57.28 717.607 55.7387C717.935 54.1974 717.796 52.993 717.195 52.1213C716.594 51.2495 715.602 50.8158 714.228 50.8158C712.853 50.8158 711.739 51.2453 710.798 52.1044C709.856 52.9635 709.221 54.1637 708.893 55.705C708.561 57.2674 708.675 58.4802 709.238 59.3393C709.797 60.1984 710.756 60.6279 712.109 60.6279H712.113Z" fill="#231F20"/>
<path d="M725.081 63.82L727.935 50.3568C728.053 49.8135 728.129 49.3082 728.175 48.8449C728.217 48.3859 728.234 47.9858 728.217 47.6489H735.985C736.031 47.9016 736.031 48.2343 735.985 48.647C735.939 49.0597 735.846 49.5987 735.708 50.2599C736.897 49.245 738.104 48.487 739.335 47.9943C740.563 47.5015 741.861 47.2573 743.228 47.2573C745.75 47.2573 747.536 47.8806 748.583 49.1271C749.63 50.3736 749.899 52.2013 749.39 54.6017L747.435 63.82H739.684L741.588 54.8375C741.849 53.5994 741.794 52.6982 741.416 52.1339C741.038 51.5696 740.315 51.2832 739.243 51.2832C737.986 51.2832 736.969 51.6622 736.183 52.416C735.401 53.1698 734.846 54.3111 734.526 55.8313L732.832 63.82H725.081Z" fill="#231F20"/>
<path d="M771.706 58.7581L770.63 63.8242H749.751L754.674 40.6246H762.934L759.087 58.7581H771.706Z" fill="#231F20"/>
<path d="M771.168 63.82L774.598 47.6531H782.383L778.953 63.82H771.168ZM775.086 45.358L776.091 40.6246H783.876L782.871 45.358H775.086Z" fill="#231F20"/>
<path d="M783.451 63.82L786.066 51.4896H782.249L783.064 47.6531H786.881L787.377 45.3243C787.747 43.5851 788.609 42.3007 789.971 41.4795C791.333 40.6583 793.249 40.2456 795.729 40.2456C796.385 40.2456 797.1 40.2793 797.873 40.3467C798.647 40.4141 799.492 40.5193 800.412 40.6541L799.672 44.1452C799.357 44.1368 799 44.1199 798.592 44.1073C798.184 44.0905 797.949 44.082 797.886 44.082C796.957 44.082 796.284 44.2336 795.864 44.5368C795.444 44.84 795.145 45.4086 794.973 46.234L794.674 47.6489H798.937L798.121 51.4854H793.859L791.244 63.8158H783.459L783.451 63.82Z" fill="#231F20"/>
<path d="M799.685 58.8044L801.299 51.1906H796.906L797.739 47.2573H802.131L802.758 44.301L810.946 41.9427L809.82 47.2573H814.229L813.397 51.1906H808.987L807.667 57.4021C807.482 58.2738 807.583 58.8845 807.966 59.234C808.348 59.5877 809.118 59.7604 810.261 59.7604C810.513 59.7604 810.786 59.752 811.085 59.7351C811.383 59.7183 811.707 59.6972 812.052 59.6635L811.224 63.5631C810.118 63.7737 809.088 63.9337 808.13 64.0432C807.171 64.1527 806.289 64.2074 805.482 64.2074C802.981 64.2074 801.282 63.7947 800.395 62.9651C799.504 62.1355 799.269 60.7458 799.681 58.796L799.685 58.8044Z" fill="#231F20"/>
<path d="M824.065 63.82L826.524 52.2223H827.613L825.352 62.8851H831.375L831.178 63.82H824.065Z" fill="#231F20"/>
<path d="M834.276 61.7144C834.166 62.2408 834.175 62.6072 834.305 62.822C834.435 63.0367 834.709 63.1462 835.125 63.1462C835.268 63.1462 835.415 63.1336 835.57 63.1083C835.726 63.0831 835.886 63.0494 836.054 63.0031L835.869 63.8832C835.625 63.9295 835.402 63.9674 835.205 63.9927C835.003 64.018 834.835 64.0306 834.7 64.0306C834.044 64.0306 833.586 63.8748 833.33 63.5589C833.069 63.2431 833.01 62.7714 833.141 62.144L834.339 56.5051H832.691L832.855 55.7345H834.503L834.86 54.0416L835.991 53.6078L835.541 55.7303H837.432L837.269 56.5009H835.377L834.271 61.706L834.276 61.7144Z" fill="#231F20"/>
<path d="M846.277 52.2223L844.255 61.7607C844.242 61.8197 844.2 62.0766 844.129 62.5314C844.057 62.9862 843.986 63.4157 843.914 63.82H842.859L843.095 62.4851C842.624 63.0115 842.136 63.3947 841.636 63.6389C841.136 63.8832 840.581 64.0053 839.967 64.0053C838.895 64.0053 838.122 63.6263 837.647 62.8641C837.168 62.1061 837.067 61.0869 837.336 59.8109C837.617 58.4802 838.151 57.4358 838.933 56.6862C839.715 55.9366 840.652 55.5576 841.745 55.5576C842.346 55.5576 842.851 55.6797 843.263 55.9282C843.67 56.1767 843.994 56.5515 844.23 57.061L845.255 52.2265H846.281L846.277 52.2223ZM843.637 59.7646C843.86 58.7202 843.792 57.899 843.443 57.3011C843.095 56.7031 842.506 56.3999 841.682 56.3999C840.858 56.3999 840.177 56.6946 839.61 57.2884C839.042 57.8822 838.643 58.7244 838.412 59.8109C838.189 60.868 838.24 61.6976 838.572 62.2956C838.904 62.8936 839.475 63.1926 840.291 63.1926C841.106 63.1926 841.817 62.8893 842.409 62.2829C843.002 61.6765 843.414 60.8385 843.641 59.7604L843.637 59.7646Z" fill="#231F20"/>
<path d="M846.117 63.82L846.415 62.4219H847.718L847.42 63.82H846.117Z" fill="#231F20"/>
</g>
<path d="M337.631 47.6356C326.477 47.6356 317.626 41.8793 317.626 34.6839C317.626 27.4885 326.423 22.1186 337.431 22.1186C348.438 22.1186 357.289 27.6883 357.289 34.9237C357.289 42.1591 348.491 47.6356 337.618 47.6356H337.631ZM348.973 27.7283C348.973 25.543 343.711 23.7309 337.297 23.7309C330.882 23.7309 326.048 25.543 326.048 27.8749C326.048 29.3539 328.445 30.7797 332.65 31.4992L332.931 31.5525C333.601 26.9288 335.462 23.9307 337.618 23.9307C339.573 23.9307 341.488 27.222 342.117 31.5525C346.375 30.9396 348.96 29.4605 348.96 27.7416L348.973 27.7283ZM354.477 34.2975C354.477 32.2454 353.714 30.2467 352.227 28.4345V28.7144C352.227 31.326 348.21 33.7645 342.559 34.564L342.412 34.6173V34.7638C342.412 40.1471 341.26 43.9047 339.064 46.0899C347.822 45.517 354.477 40.4269 354.477 34.2841V34.2975ZM320.505 34.2575C320.505 40.4402 326.959 45.3438 335.958 46.1166C333.802 44.0246 332.65 40.4002 332.65 35.017V34.6306L332.409 34.5773C326.571 33.4314 322.741 31.286 322.741 28.6211C322.741 28.5678 322.741 28.5278 322.795 28.3812C321.268 30.1401 320.491 32.1921 320.491 34.2442L320.505 34.2575ZM340.309 31.6325C339.787 28.5411 338.823 26.9155 337.484 26.9155C336.239 26.9155 335.194 28.7277 334.659 31.7258L334.846 31.7791C335.663 31.8324 336.573 31.8723 337.524 31.8723C338.475 31.8723 339.292 31.7791 340.109 31.7791H340.35L340.296 31.6325H340.309ZM337.819 34.9637C336.573 34.9637 335.475 34.9104 334.618 34.8171H334.471C334.618 39.201 335.864 42.1458 337.578 42.1458C339.158 42.1458 340.443 39.0544 340.591 34.8171C339.586 34.9637 339.252 34.9637 337.819 34.9637Z" fill="#1B1B1B"/>
<path d="M376.384 29.4472H370.693V43.918H366.622V29.4472H361.078V26.0227H376.384V29.4472Z" fill="#1B1B1B"/>
<path d="M386.761 44.6375C381.499 44.6375 377.294 40.4535 377.294 35.1636C377.294 29.8736 381.606 25.5031 386.869 25.5031C392.131 25.5031 396.389 29.8336 396.389 34.977C396.389 40.1204 392.131 44.6375 386.775 44.6375H386.761ZM386.909 29.1141C383.749 29.1141 381.593 31.4992 381.593 35.0703C381.539 38.6947 383.655 41.0265 386.802 41.0265C389.948 41.0265 391.97 38.6414 391.97 35.0303C391.97 31.4193 389.908 29.1274 386.895 29.1274L386.909 29.1141Z" fill="#1B1B1B"/>
<path d="M407.798 37.3489V43.918H403.687V37.2956L396.563 26.0094H401.304L405.749 33.5379L410.396 26.0094H415.083L407.811 37.3355L407.798 37.3489Z" fill="#1B1B1B"/>
<path d="M424.536 44.6375C419.274 44.6375 415.069 40.4535 415.069 35.1636C415.069 29.8736 419.381 25.5031 424.643 25.5031C429.906 25.5031 434.164 29.8336 434.164 34.977C434.164 40.1204 429.906 44.6375 424.55 44.6375H424.536ZM424.684 29.1141C421.523 29.1141 419.368 31.4992 419.368 35.0703C419.314 38.6947 421.43 41.0265 424.577 41.0265C427.723 41.0265 429.745 38.6414 429.745 35.0303C429.745 31.4193 427.683 29.1274 424.67 29.1274L424.684 29.1141Z" fill="#1B1B1B"/>
<path d="M450.367 29.4472H444.676V43.918H440.605V29.4472H435.048V26.0227H450.354V29.4472H450.367Z" fill="#1B1B1B"/>
<path d="M468.592 43.918H464.186L462.66 39.9605H455L453.514 43.918H449.108L456.326 26.0227H461.347L468.565 43.918H468.592ZM456.192 36.7759H461.401L458.816 29.9269L456.178 36.7759H456.192Z" fill="#1B1B1B"/>
<path d="M317.612 51.3932V71.9801H468.592V51.3932H317.612ZM334.538 66.8234H332.114V58.9085H332.088L329.798 66.8234H327.428L325.258 58.9085H325.232V66.8234H322.808V56.55H326.798L328.66 63.5322H328.686L330.655 56.55H334.525V66.8234H334.538ZM342.492 66.8234L341.836 64.5449H338.448L337.779 66.8234H335.328L338.622 56.55H341.889L345.117 66.8234H342.505H342.492ZM352.04 58.2555H349.281V66.8101H346.804V58.2555H344.045V56.55H352.053V58.2555H352.04ZM359.471 66.8234H352.856V56.55H359.337V58.1223H355.347V60.654H359.029V62.2263H355.347V65.2244H359.471V66.7968V66.8234ZM365.872 66.8234C365.537 66.1971 365.604 65.5043 365.604 64.838C365.604 63.6121 365.738 62.5728 363.823 62.5728H363.181V66.8234H360.703V56.55H365.296C366.997 56.55 368.082 57.4827 368.082 59.2416C368.082 60.5474 367.492 61.5335 365.872 61.76V61.7866C366.421 61.8399 368.028 61.9598 368.028 63.812C368.028 64.4649 368.081 66.397 368.309 66.8234H365.872ZM372.059 66.8234H369.581V56.55H372.059V66.8234ZM380.079 66.8234L379.423 64.5449H376.036L375.366 66.8234H372.916L376.21 56.55H379.477L382.704 66.8234H380.093H380.079ZM389.748 66.8234H383.548V56.55H386.025V65.1045H389.748V66.8101V66.8234ZM401.719 66.8234H399.241V62.2397H396.403V66.8234H393.925V56.55H396.403V60.654H399.241V56.55H401.719V66.8234ZM409.807 66.8234L409.151 64.5449H405.763L405.093 66.8234H402.643L405.937 56.55H409.204L412.431 66.8234H409.82H409.807ZM422.139 66.8234H418.872L415.632 59.3215H415.605V66.8234H413.288V56.55H416.649L419.809 63.6654H419.836V56.55H422.153V66.8234H422.139ZM427.991 66.8234H423.947V56.55H428.098C431.352 56.55 431.968 58.4288 431.968 61.6267C431.968 63.1991 432.249 66.8234 428.005 66.8234H427.991ZM439.842 66.8234H433.642V56.55H436.119V65.1045H439.842V66.8101V66.8234ZM443.082 66.8234H440.605V56.55H443.082V66.8234ZM453.715 66.8234H450.447L447.207 59.3215H447.18V66.8234H444.863V56.55H448.224L451.385 63.6654H451.411V56.55H453.728V66.8234H453.715ZM463.369 59.708H460.905C460.919 58.7619 460.745 57.9224 459.419 57.9224C457.879 57.9224 457.879 59.7213 457.879 61.72C457.879 64.9313 458.241 65.5043 459.66 65.5043C460.075 65.5043 460.517 65.4243 460.892 65.3044V63.0258H459.539V61.4535H463.369V66.6635C462.7 66.7834 460.999 67.01 460.008 67.01C455.83 67.01 455.362 65.5176 455.362 61.6134C455.362 59.0284 455.509 56.3901 459.566 56.3901C462.003 56.3901 463.516 57.576 463.369 59.7213V59.708Z" fill="#1B1B1B"/>
<path d="M364.292 58.1357H363.194V60.9872H364.292C365.283 60.9872 365.564 60.1344 365.564 59.4815C365.564 58.4954 365.082 58.1357 364.292 58.1357Z" fill="#1B1B1B"/>
<path d="M427.723 58.1357H426.438V65.2511H427.643C429.156 65.2511 429.451 64.2651 429.451 61.6934C429.451 59.8013 429.451 58.1357 427.723 58.1357Z" fill="#1B1B1B"/>
<path d="M377.656 58.5221L376.531 62.9592H378.888L377.696 58.5221H377.656Z" fill="#1B1B1B"/>
<path d="M407.396 58.5221L406.258 62.9592H408.628L407.423 58.5221H407.396Z" fill="#1B1B1B"/>
<path d="M340.082 58.5221L338.943 62.9592H341.314L340.108 58.5221H340.082Z" fill="#1B1B1B"/>
<path d="M293.215 0.132568L277.534 94.7256" stroke="#DEDEDE" stroke-miterlimit="10"/>
<path d="M88.6192 34.404L87.8157 40.0005H101.755L102.559 34.404H88.6192ZM120.77 42.3057C120.944 41.1198 121.453 40.267 122.323 39.7606C123.18 39.241 124.051 38.9878 125.818 38.9878C126.153 38.9878 126.876 39.0278 127.974 39.121C128.697 39.1877 129.273 39.2276 129.702 39.2676L130.425 34.2308C129.032 34.1376 127.827 34.0709 126.809 34.0176C125.792 33.9777 124.935 33.951 124.252 33.951C118.601 33.951 114.932 34.4574 112.374 35.4834C109.803 36.5094 108.357 38.1617 108.022 40.4669L107.594 43.4649H102.519L101.796 48.5017H106.589L104.313 64.2783H117.61L119.886 48.5017H123.877L124.6 43.4649H120.609L120.77 42.3057ZM77.197 34.404H62.5744L58.2626 64.2783H82.888L83.7182 58.4954H73.7288L77.2103 34.4174L77.197 34.404ZM84.5216 64.265H98.0997L101.099 43.4516H87.5211L84.5216 64.265ZM145.811 59.6013C144.03 59.6013 142.784 59.4148 142.075 59.055C141.365 58.6819 141.07 58.0823 141.191 57.2295L142.463 48.4085H151.207L151.917 43.4649H143.387L144.646 36.3895L131.456 35.9897L130.063 43.4783H125.992L125.283 48.4218H129.353L127.867 58.7485C127.572 60.7606 128.389 62.253 130.318 63.2124C132.246 64.1851 135.366 64.6648 139.691 64.6648C141.003 64.6648 142.436 64.6381 143.989 64.5715C145.543 64.5049 147.176 64.4116 148.917 64.2917L149.613 59.4814C149.252 59.4947 148.623 59.5214 147.725 59.5614C146.828 59.6013 146.185 59.628 145.811 59.628V59.6013ZM187.603 45.7435C184.201 43.8514 179.126 42.892 172.364 42.892C165.602 42.892 160.179 43.8514 156.228 45.7568C152.278 47.6623 150.055 50.3672 149.56 53.8716C149.051 57.3761 150.497 60.081 153.885 61.9865C157.273 63.8919 162.388 64.8513 169.191 64.8513C175.993 64.8513 181.309 63.9052 185.246 61.9998C189.183 60.1077 191.419 57.3894 191.914 53.885C192.423 50.3672 190.977 47.6623 187.589 45.7701L187.603 45.7435ZM177.6 53.7917C177.252 56.1635 176.475 57.8558 175.243 58.8951C174.011 59.9344 172.19 60.4408 169.793 60.4408C167.396 60.4408 165.722 59.9211 164.798 58.8818C163.874 57.8424 163.58 56.1502 163.928 53.7917C164.276 51.4199 165.066 49.7143 166.298 48.675C167.53 47.6223 169.338 47.1026 171.721 47.1026C174.105 47.1026 175.792 47.6223 176.729 48.675C177.667 49.7276 177.961 51.4332 177.613 53.7917H177.6ZM237.925 43.7048L230.305 57.7625L226.743 43.7048H213.366L205.934 57.496L202.493 43.7048H190.321L197.204 64.0252H210.581L218.548 50.7003L222.552 64.0252H236.17L248.771 43.7048H237.951H237.925Z" fill="#F26522"/>
<path d="M25.6029 34.6839H5.82492L0 75.0582H33.2757L34.4005 67.2365H20.8894L25.5895 34.6839H25.6029Z" fill="#F26522"/>
<path d="M23.6345 64.4915H43.4124L49.2373 24.1173H15.9616L14.8368 31.939H28.348L23.6479 64.4915H23.6345Z" fill="#78777A"/>
<path d="M942.567 28.6883H920.844L914.443 78.4067H950.999L952.241 68.7712H937.402L942.567 28.6883Z" fill="#F36C24"/>
<path d="M940.413 65.393H962.13L968.538 15.6746H931.981L930.733 25.3038H945.578L940.413 65.393Z" fill="#78777A"/>
<path d="M976.72 54.1473L982.77 22.4561H995.358L1004.77 43.7288L1008.83 22.4561H1018.37L1012.32 54.1473H999.271L990.312 32.8115L986.241 54.1473H976.714H976.72Z" fill="#F36C24"/>
<path d="M1029.13 54.684C1024.15 54.684 1020.57 53.7116 1018.4 51.7605C1016.23 49.8157 1015.51 46.9238 1016.24 43.1037C1016.96 39.3404 1018.79 36.4548 1021.75 34.4658C1024.71 32.4768 1028.65 31.4791 1033.56 31.4791C1038.47 31.4791 1042.05 32.4705 1044.24 34.4532C1046.43 36.4358 1047.16 39.3341 1046.44 43.1416C1045.72 46.9112 1043.89 49.7715 1040.94 51.7353C1038 53.699 1034.06 54.6777 1029.13 54.6777V54.684ZM1029.94 49.7842C1031.66 49.7842 1033.12 49.1969 1034.31 48.0225C1035.5 46.848 1036.29 45.2063 1036.7 43.1037C1037.1 41.001 1036.93 39.353 1036.19 38.1596C1035.45 36.9662 1034.23 36.379 1032.54 36.379C1030.85 36.379 1029.49 36.9662 1028.33 38.1407C1027.17 39.3151 1026.39 40.9568 1026 43.0595C1025.59 45.1937 1025.73 46.848 1026.41 48.0225C1027.1 49.1969 1028.28 49.7842 1029.95 49.7842H1029.94Z" fill="#F36C24"/>
<path d="M1045.93 54.1852L1049.44 35.7981C1049.6 34.9962 1049.7 34.2827 1049.76 33.6575C1049.82 33.0324 1049.83 32.5147 1049.81 32.0979H1059.33C1059.37 32.5968 1059.36 33.1524 1059.31 33.7523C1059.25 34.3521 1059.16 34.9899 1059.04 35.6655C1060.19 34.2321 1061.45 33.184 1062.79 32.521C1064.13 31.858 1065.67 31.5233 1067.38 31.5233C1067.68 31.5233 1067.9 31.5233 1068.06 31.536C1068.22 31.5423 1068.38 31.5612 1068.52 31.5928L1067.12 38.9173C1066.7 38.8731 1066.29 38.8416 1065.91 38.8226C1065.52 38.8037 1065.17 38.791 1064.83 38.791C1062.45 38.791 1060.69 39.2899 1059.55 40.2938C1058.4 41.2978 1057.58 43.0721 1057.1 45.6231L1055.46 54.1978H1045.93V54.1852Z" fill="#F36C24"/>
<path d="M1072.15 47.29L1074.14 36.8905H1068.74L1069.76 31.517H1075.16L1075.93 27.4759L1085.99 24.2556L1084.61 31.517H1090.02L1089 36.8905H1083.58L1081.96 45.3768C1081.73 46.5639 1081.86 47.3974 1082.33 47.8773C1082.8 48.3571 1083.74 48.5971 1085.15 48.5971C1085.46 48.5971 1085.8 48.5845 1086.17 48.5655C1086.54 48.5466 1086.93 48.5087 1087.35 48.4708L1086.34 53.8C1084.98 54.0842 1083.71 54.3052 1082.54 54.4567C1081.37 54.6083 1080.28 54.684 1079.29 54.684C1076.21 54.684 1074.13 54.1158 1073.04 52.9855C1071.94 51.8552 1071.65 49.9547 1072.16 47.29H1072.15Z" fill="#F36C24"/>
<path d="M1087.97 54.1473L1094.02 22.4561H1103.59L1101.08 35.6276C1102.47 34.27 1103.92 33.2408 1105.46 32.5526C1107 31.8643 1108.6 31.5233 1110.28 31.5233C1113.39 31.5233 1115.6 32.3316 1116.91 33.948C1118.22 35.5645 1118.58 37.9323 1117.99 41.0389L1115.48 54.1473H1105.92L1108.32 41.5567C1108.61 40.0413 1108.52 38.9047 1108.03 38.1533C1107.54 37.4019 1106.66 37.023 1105.39 37.023C1103.84 37.023 1102.6 37.5345 1101.65 38.5574C1100.7 39.5803 1100.03 41.1399 1099.63 43.23L1097.55 54.141H1087.98L1087.97 54.1473Z" fill="#F36C24"/>
<path d="M1128.37 45.1243L1128.28 45.6168C1128 47.0627 1128.16 48.1425 1128.75 48.8497C1129.34 49.5569 1130.38 49.9105 1131.87 49.9105C1133.07 49.9105 1134.07 49.6642 1134.85 49.1717C1135.63 48.6792 1136.18 47.9404 1136.52 46.968H1145.21C1144.61 49.4432 1143 51.3754 1140.41 52.7456C1137.81 54.1221 1134.45 54.8103 1130.35 54.8103C1125.66 54.8103 1122.41 53.8884 1120.58 52.0384C1118.76 50.1883 1118.23 47.2837 1118.98 43.3184C1119.71 39.4793 1121.5 36.5495 1124.33 34.5226C1127.16 32.4957 1130.89 31.4855 1135.51 31.4855C1139.78 31.4855 1142.76 32.5463 1144.48 34.6678C1146.18 36.7894 1146.63 39.9844 1145.82 44.2466L1145.65 45.1306H1128.37V45.1243ZM1138 40.458L1138.06 40.1549C1138.29 38.9237 1138.11 37.9765 1137.5 37.3198C1136.9 36.6631 1135.91 36.3285 1134.54 36.3285C1133.18 36.3285 1131.95 36.6631 1131.04 37.3388C1130.13 38.0144 1129.55 38.9679 1129.31 40.1928L1129.26 40.4517H1138V40.458Z" fill="#F36C24"/>
<path d="M1145.45 54.1852L1148.96 35.7981C1149.11 34.9962 1149.22 34.2827 1149.27 33.6575C1149.33 33.0324 1149.35 32.5147 1149.32 32.0979H1158.85C1158.89 32.5968 1158.87 33.1524 1158.82 33.7523C1158.77 34.3521 1158.68 34.9899 1158.55 35.6655C1159.71 34.2321 1160.96 33.184 1162.3 32.521C1163.65 31.858 1165.18 31.5233 1166.9 31.5233C1167.19 31.5233 1167.42 31.5233 1167.58 31.536C1167.74 31.5423 1167.89 31.5612 1168.03 31.5928L1166.63 38.9173C1166.21 38.8731 1165.81 38.8416 1165.42 38.8226C1165.04 38.8037 1164.68 38.791 1164.34 38.791C1161.96 38.791 1160.2 39.2899 1159.06 40.2938C1157.92 41.2978 1157.1 43.0721 1156.61 45.6231L1154.97 54.1978H1145.45V54.1852Z" fill="#F36C24"/>
<path d="M1164.82 54.1473L1168.33 35.7539C1168.47 35.0088 1168.56 34.3205 1168.62 33.6891C1168.67 33.0577 1168.69 32.5147 1168.67 32.0537H1178.22C1178.27 32.3947 1178.27 32.8556 1178.22 33.4176C1178.16 33.9859 1178.05 34.7183 1177.88 35.6213C1179.34 34.2321 1180.82 33.2029 1182.33 32.5273C1183.84 31.8517 1185.44 31.517 1187.12 31.517C1190.22 31.517 1192.41 32.3694 1193.7 34.0743C1194.99 35.7791 1195.32 38.2733 1194.69 41.5504L1192.29 54.141H1182.76L1185.11 41.8724C1185.43 40.1802 1185.35 38.9489 1184.9 38.1786C1184.44 37.4082 1183.54 37.0167 1182.22 37.0167C1180.68 37.0167 1179.43 37.5345 1178.47 38.5637C1177.5 39.5929 1176.82 41.1463 1176.43 43.2236L1174.35 54.1347H1164.82L1164.82 54.1473Z" fill="#F36C24"/>
<path d="M1025.16 63.8208L1022.56 77.4154H1019.2L1021.79 63.8208H1015.94L1016.46 61.0994H1031.57L1031.05 63.8208H1025.17H1025.16Z" fill="#78777A"/>
<path d="M1037.03 77.6743C1035.74 77.6743 1034.64 77.4911 1033.71 77.1186C1032.78 76.7524 1032.01 76.1841 1031.37 75.4264C1030.7 74.6182 1030.25 73.6837 1030.02 72.6355C1029.78 71.5873 1029.78 70.4634 1030.01 69.27C1030.24 68.0576 1030.67 66.9274 1031.31 65.8603C1031.95 64.7995 1032.75 63.8713 1033.72 63.082C1034.65 62.3243 1035.64 61.756 1036.71 61.3898C1037.78 61.0236 1038.96 60.8341 1040.24 60.8341C1041.52 60.8341 1042.64 61.0173 1043.57 61.3898C1044.5 61.756 1045.29 62.3243 1045.92 63.082C1046.59 63.8713 1047.04 64.7932 1047.27 65.854C1047.5 66.9148 1047.5 68.0513 1047.27 69.27C1047.04 70.4697 1046.61 71.5999 1045.98 72.6544C1045.34 73.7089 1044.54 74.6371 1043.56 75.4327C1042.63 76.1904 1041.63 76.7587 1040.56 77.1249C1039.49 77.4911 1038.31 77.6806 1037.03 77.6806V77.6743ZM1043.75 69.2637C1044.07 67.5904 1043.85 66.2202 1043.1 65.1531C1042.34 64.086 1041.22 63.5556 1039.72 63.5556C1038.23 63.5556 1036.86 64.086 1035.7 65.1405C1034.55 66.1949 1033.8 67.5651 1033.49 69.2447C1033.16 70.9369 1033.38 72.3071 1034.13 73.3679C1034.89 74.4287 1036.03 74.9528 1037.55 74.9528C1039.07 74.9528 1040.39 74.4224 1041.54 73.3679C1042.69 72.3071 1043.43 70.9433 1043.74 69.27L1043.75 69.2637Z" fill="#78777A"/>
<path d="M1051.39 77.4154L1052.69 70.5771L1047.5 61.0994H1051.49L1055.09 67.7925L1061.15 61.0994H1064.58L1056.1 70.394L1054.76 77.4154H1051.39H1051.39Z" fill="#78777A"/>
<path d="M1068.69 77.6743C1067.4 77.6743 1066.29 77.4911 1065.37 77.1186C1064.44 76.7524 1063.66 76.1841 1063.03 75.4264C1062.36 74.6182 1061.91 73.6837 1061.67 72.6355C1061.44 71.5873 1061.44 70.4634 1061.67 69.27C1061.9 68.0576 1062.33 66.9274 1062.97 65.8603C1063.61 64.7995 1064.41 63.8713 1065.38 63.082C1066.31 62.3243 1067.3 61.756 1068.37 61.3898C1069.44 61.0236 1070.62 60.8341 1071.9 60.8341C1073.18 60.8341 1074.3 61.0173 1075.23 61.3898C1076.16 61.756 1076.94 62.3243 1077.57 63.082C1078.25 63.8713 1078.7 64.7932 1078.93 65.854C1079.16 66.9148 1079.16 68.0513 1078.93 69.27C1078.7 70.4697 1078.26 71.5999 1077.64 72.6544C1077 73.7089 1076.19 74.6371 1075.22 75.4327C1074.29 76.1904 1073.29 76.7587 1072.22 77.1249C1071.15 77.4911 1069.97 77.6806 1068.69 77.6806V77.6743ZM1075.41 69.2637C1075.72 67.5904 1075.51 66.2202 1074.75 65.1531C1074 64.086 1072.88 63.5556 1071.38 63.5556C1069.88 63.5556 1068.52 64.086 1067.36 65.1405C1066.2 66.1949 1065.46 67.5651 1065.14 69.2447C1064.82 70.9369 1065.04 72.3071 1065.79 73.3679C1066.54 74.4287 1067.68 74.9528 1069.2 74.9528C1070.72 74.9528 1072.05 74.4224 1073.2 73.3679C1074.35 72.3071 1075.08 70.9433 1075.4 69.27L1075.41 69.2637Z" fill="#78777A"/>
<path d="M1089.19 63.8208L1086.59 77.4154H1083.23L1085.82 63.8208H1079.97L1080.49 61.0994H1095.6L1095.08 63.8208H1089.2H1089.19Z" fill="#78777A"/>
<path d="M1090.6 77.4154L1101.21 61.0994H1105.32L1109.5 77.4154H1105.72L1104.8 73.4122H1096.64L1094.17 77.4154H1090.6ZM1098.37 70.6718H1104.19L1102.7 63.9345L1098.37 70.6718Z" fill="#78777A"/>
<path d="M1113.31 61.0994H1116.68L1114.04 74.9023H1122.01L1121.54 77.4154H1110.19L1113.31 61.0994Z" fill="#78777A"/>
<path d="M1125.58 61.0994H1129.01L1125.9 77.4154H1122.47L1125.58 61.0994Z" fill="#78777A"/>
<path d="M1129.14 77.4154L1132.25 61.0994H1144.17L1143.7 63.5809H1135.06L1134.29 67.6094H1142.24L1141.75 70.173H1133.81L1132.42 77.4217H1129.14L1129.14 77.4154Z" fill="#78777A"/>
<path d="M1152.78 63.8208L1150.18 77.4154H1146.81L1149.41 63.8208H1143.56L1144.08 61.0994H1159.19L1158.66 63.8208H1152.78H1152.78Z" fill="#78777A"/>
<defs>
<clipPath id="clip0_299_510">
<rect width="297.629" height="55.8576" fill="white" transform="translate(550.085 19.5601)"/>
</clipPath>
</defs>
</svg>
