<svg width="603" height="350" viewBox="0 0 603 350" fill="none" xmlns="http://www.w3.org/2000/svg">
<path d="M434.476 62.1286C420.122 62.1286 408.732 54.7211 408.732 45.4618C408.732 36.2025 420.053 29.2923 434.218 29.2923C448.382 29.2923 459.772 36.4597 459.772 45.7705C459.772 55.0812 448.451 62.1286 434.459 62.1286H434.476ZM449.071 36.5112C449.071 33.6991 442.299 31.3671 434.045 31.3671C425.791 31.3671 419.571 33.6991 419.571 36.6998C419.571 38.6031 422.655 40.4378 428.066 41.3637L428.428 41.4323C429.289 35.4823 431.685 31.6243 434.459 31.6243C436.975 31.6243 439.439 35.8596 440.249 41.4323C445.728 40.6436 449.054 38.7403 449.054 36.5283L449.071 36.5112ZM456.153 44.9646C456.153 42.3239 455.171 39.7519 453.258 37.4199V37.78C453.258 41.1408 448.089 44.2787 440.817 45.3075L440.628 45.3761V45.5647C440.628 52.492 439.146 57.3275 436.32 60.1395C447.589 59.4022 456.153 52.8521 456.153 44.9474V44.9646ZM412.437 44.9131C412.437 52.8693 420.743 59.1793 432.322 60.1738C429.548 57.4818 428.066 52.8178 428.066 45.8905V45.3932L427.756 45.3247C420.243 43.85 415.315 41.0894 415.315 37.66C415.315 37.5914 415.315 37.54 415.384 37.3514C413.419 39.6147 412.42 42.2554 412.42 44.896L412.437 44.9131ZM437.922 41.5352C437.25 37.5571 436.01 35.4652 434.286 35.4652C432.684 35.4652 431.34 37.7972 430.651 41.6552L430.892 41.7238C431.943 41.7924 433.115 41.8438 434.338 41.8438C435.562 41.8438 436.613 41.7238 437.664 41.7238H437.974L437.905 41.5352H437.922ZM434.717 45.8219C433.115 45.8219 431.702 45.7533 430.599 45.6333H430.409C430.599 51.2746 432.201 55.0641 434.407 55.0641C436.44 55.0641 438.095 51.086 438.284 45.6333C436.992 45.8219 436.561 45.8219 434.717 45.8219Z" fill="#1B1B1B"/>
<path d="M484.344 38.7231H477.02V57.3446H471.782V38.7231H464.648V34.3164H484.344V38.7231Z" fill="#1B1B1B"/>
<path d="M497.698 58.2706C490.926 58.2706 485.515 52.8864 485.515 46.0791C485.515 39.2718 491.064 33.6476 497.836 33.6476C504.608 33.6476 510.088 39.2204 510.088 45.8391C510.088 52.4578 504.608 58.2706 497.715 58.2706H497.698ZM497.888 38.2944C493.821 38.2944 491.047 41.3637 491.047 45.9591C490.978 50.623 493.7 53.6238 497.75 53.6238C501.799 53.6238 504.401 50.5545 504.401 45.9077C504.401 41.2609 501.748 38.3116 497.87 38.3116L497.888 38.2944Z" fill="#1B1B1B"/>
<path d="M524.769 48.8912V57.3446H519.479V48.8226L510.312 34.2992H516.412L522.132 43.9872L528.112 34.2992H534.143L524.786 48.8741L524.769 48.8912Z" fill="#1B1B1B"/>
<path d="M546.308 58.2706C539.536 58.2706 534.126 52.8864 534.126 46.0791C534.126 39.2718 539.674 33.6476 546.446 33.6476C553.218 33.6476 558.698 39.2204 558.698 45.8391C558.698 52.4578 553.218 58.2706 546.325 58.2706H546.308ZM546.498 38.2944C542.431 38.2944 539.657 41.3637 539.657 45.9591C539.588 50.623 542.311 53.6238 546.36 53.6238C550.409 53.6238 553.011 50.5545 553.011 45.9077C553.011 41.2609 550.358 38.3116 546.481 38.3116L546.498 38.2944Z" fill="#1B1B1B"/>
<path d="M579.548 38.7231H572.224V57.3446H566.986V38.7231H559.835V34.3164H579.531V38.7231H579.548Z" fill="#1B1B1B"/>
<path d="M603 57.3446H597.331L595.366 52.252H585.51L583.597 57.3446H577.928L587.216 34.3164H593.678L602.966 57.3446H603ZM587.044 48.1539H593.747L590.421 39.3404L587.026 48.1539H587.044Z" fill="#1B1B1B"/>
<path d="M408.715 66.964V93.4559H603V66.964H408.715ZM430.495 86.8201H427.376V76.6349H427.342L424.395 86.8201H421.345L418.554 76.6349H418.519V86.8201H415.4V73.5999H420.535L422.931 82.5848H422.965L425.498 73.5999H430.478V86.8201H430.495ZM440.731 86.8201L439.886 83.888H435.527L434.665 86.8201H431.512L435.751 73.5999H439.955L444.108 86.8201H440.748H440.731ZM453.017 75.7947H449.467V86.803H446.279V75.7947H442.73V73.5999H453.034V75.7947H453.017ZM462.58 86.8201H454.068V73.5999H462.408V75.6232H457.273V78.8811H462.012V80.9044H457.273V84.7625H462.58V86.7858V86.8201ZM470.817 86.8201C470.386 86.0142 470.472 85.1226 470.472 84.2652C470.472 82.6877 470.645 81.3502 468.181 81.3502H467.353V86.8201H464.166V73.5999H470.076C472.264 73.5999 473.66 74.8001 473.66 77.0635C473.66 78.7439 472.902 80.0128 470.817 80.3043V80.3386C471.523 80.4072 473.591 80.5615 473.591 82.9449C473.591 83.7851 473.66 86.2714 473.953 86.8201H470.817ZM478.778 86.8201H475.59V73.5999H478.778V86.8201ZM489.1 86.8201L488.255 83.888H483.896L483.034 86.8201H479.881L484.12 73.5999H488.324L492.477 86.8201H489.117H489.1ZM501.541 86.8201H493.563V73.5999H496.75V84.6082H501.541V86.803V86.8201ZM516.946 86.8201H513.758V80.9216H510.105V86.8201H506.917V73.5999H510.105V78.8811H513.758V73.5999H516.946V86.8201ZM527.354 86.8201L526.509 83.888H522.15L521.288 86.8201H518.135L522.374 73.5999H526.578L530.731 86.8201H527.371H527.354ZM543.224 86.8201H539.019L534.849 77.1664H534.815V86.8201H531.834V73.5999H536.159L540.226 82.7563H540.26V73.5999H543.241V86.8201H543.224ZM550.754 86.8201H545.55V73.5999H550.892C555.079 73.5999 555.872 76.0176 555.872 80.1328C555.872 82.1561 556.234 86.8201 550.771 86.8201H550.754ZM566.004 86.8201H558.026V73.5999H561.214V84.6082H566.004V86.803V86.8201ZM570.174 86.8201H566.986V73.5999H570.174V86.8201ZM583.856 86.8201H579.651L575.481 77.1664H575.447V86.8201H572.466V73.5999H576.791L580.857 82.7563H580.892V73.5999H583.873V86.8201H583.856ZM596.28 77.6637H593.109C593.126 76.4462 592.902 75.366 591.196 75.366C589.215 75.366 589.215 77.6808 589.215 80.2528C589.215 84.3852 589.68 85.1226 591.507 85.1226C592.041 85.1226 592.609 85.0197 593.092 84.8654V81.9332H591.351V79.9099H596.28V86.6143C595.418 86.7687 593.23 87.0602 591.955 87.0602C586.578 87.0602 585.975 85.1397 585.975 80.1157C585.975 76.7892 586.165 73.3941 591.386 73.3941C594.522 73.3941 596.469 74.9202 596.28 77.6808V77.6637Z" fill="#1B1B1B"/>
<path d="M468.784 75.6404H467.371V79.3098H468.784C470.059 79.3098 470.421 78.2124 470.421 77.3722C470.421 76.1033 469.8 75.6404 468.784 75.6404Z" fill="#1B1B1B"/>
<path d="M550.409 75.6404H548.755V84.7968H550.306C552.253 84.7968 552.632 83.5279 552.632 80.2186C552.632 77.7837 552.632 75.6404 550.409 75.6404Z" fill="#1B1B1B"/>
<path d="M485.981 76.1376L484.533 81.8475H487.566L486.032 76.1376H485.981Z" fill="#1B1B1B"/>
<path d="M524.252 76.1376L522.787 81.8475H525.837L524.286 76.1376H524.252Z" fill="#1B1B1B"/>
<path d="M437.629 76.1376L436.164 81.8475H439.214L437.664 76.1376H437.629Z" fill="#1B1B1B"/>
<path d="M377.319 1L357.141 122.726" stroke="#DEDEDE" stroke-miterlimit="10"/>
<path d="M114.038 45.1018L113.004 52.3035H130.942L131.976 45.1018H114.038ZM155.411 55.2699C155.635 53.7438 156.29 52.6464 157.41 51.9948C158.513 51.3261 159.633 51.0003 161.907 51.0003C162.338 51.0003 163.269 51.0517 164.682 51.1718C165.612 51.2575 166.353 51.3089 166.905 51.3604L167.835 44.8789C166.043 44.7588 164.492 44.6731 163.183 44.6045C161.873 44.5531 160.77 44.5188 159.891 44.5188C152.62 44.5188 147.898 45.1704 144.607 46.4907C141.299 47.811 139.438 49.9372 139.007 52.9036L138.455 56.7616H131.925L130.994 63.2432H137.163L134.234 83.5451H151.344L154.274 63.2432H159.409L160.339 56.7616H155.204L155.411 55.2699ZM99.3397 45.1018H80.5229L74.9744 83.5451H106.663L107.731 76.1033H94.8768L99.357 45.1189L99.3397 45.1018ZM108.765 83.5279H126.238L130.098 56.7445H112.625L108.765 83.5279ZM187.634 77.5265C185.342 77.5265 183.74 77.2864 182.826 76.8235C181.913 76.3434 181.534 75.5718 181.689 74.4744L183.326 63.1231H194.578L195.492 56.7616H184.515L186.135 47.6566L169.162 47.1422L167.37 56.7788H162.131L161.218 63.1403H166.457L164.544 76.4291C164.165 79.0183 165.216 80.9387 167.697 82.1733C170.179 83.425 174.193 84.0423 179.759 84.0423C181.448 84.0423 183.292 84.008 185.291 83.9223C187.289 83.8365 189.392 83.7165 191.632 83.5622L192.528 77.3722C192.063 77.3893 191.253 77.4236 190.098 77.4751C188.944 77.5265 188.117 77.5608 187.634 77.5608V77.5265ZM241.414 59.6938C237.037 57.2589 230.506 56.0243 221.804 56.0243C213.102 56.0243 206.124 57.2589 201.04 59.7109C195.957 62.1629 193.096 65.6437 192.459 70.1533C191.804 74.663 193.665 78.1438 198.025 80.5958C202.384 83.0478 208.967 84.2824 217.72 84.2824C226.474 84.2824 233.315 83.0649 238.381 80.6129C243.447 78.1781 246.325 74.6801 246.962 70.1705C247.617 65.6437 245.756 62.1629 241.396 59.728L241.414 59.6938ZM228.542 70.0505C228.094 73.1026 227.094 75.2803 225.509 76.6177C223.924 77.9552 221.58 78.6068 218.496 78.6068C215.411 78.6068 213.257 77.938 212.068 76.6006C210.879 75.2631 210.5 73.0855 210.948 70.0505C211.396 66.9983 212.413 64.8035 213.998 63.4661C215.584 62.1115 217.91 61.4427 220.977 61.4427C224.044 61.4427 226.215 62.1115 227.422 63.4661C228.628 64.8207 229.007 67.0155 228.559 70.0505H228.542ZM306.17 57.0703L296.365 75.1602L291.781 57.0703H274.567L265.004 74.8173L260.575 57.0703H244.912L253.769 83.2193H270.983L281.236 66.0724L286.388 83.2193H303.912L320.127 57.0703H306.204H306.17Z" fill="#F26522"/>
<path d="M32.9467 45.4619H7.49571L0 97.4169H42.8203L44.2678 87.3517H26.8812L32.9294 45.4619H32.9467Z" fill="#F26522"/>
<path d="M30.4136 83.8194H55.8646L63.3603 31.8644H20.54L19.0925 41.9296H36.4791L30.4309 83.8194H30.4136Z" fill="#78777A"/>
<g clip-path="url(#clip0_299_438)">
<path d="M145.82 155.908H118.157L110 212.88H156.563L158.142 201.841H139.242L145.82 155.908Z" fill="#F36C24"/>
<path d="M143.077 197.966H170.74L178.892 141H132.335L130.75 152.033H149.655L143.077 197.966Z" fill="#78777A"/>
<path d="M194.622 197.955L200.956 168.101H218.271L222.339 186.602L234.044 168.101H250.115L243.781 197.955H233.806L238.907 173.91L223.345 197.955H215.393L209.741 173.91L204.64 197.955H194.622Z" fill="#231F20"/>
<path d="M264.947 194.883C263.736 196.086 262.307 196.974 260.669 197.554C259.03 198.134 257.125 198.427 254.956 198.427C251.879 198.427 249.617 197.901 248.184 196.85C246.751 195.798 246.237 194.308 246.642 192.379C247.2 189.745 249.033 187.849 252.144 186.683C255.254 185.518 260.171 184.906 266.905 184.852C266.916 184.814 266.938 184.733 266.976 184.619C267.014 184.505 267.041 184.418 267.051 184.364C267.279 183.296 267.111 182.5 266.554 181.974C265.997 181.449 265.05 181.183 263.714 181.183C262.502 181.183 261.534 181.373 260.809 181.757C260.084 182.142 259.57 182.717 259.284 183.486H250.045C250.575 181.178 252.079 179.46 254.556 178.332C257.028 177.205 260.56 176.642 265.142 176.642C269.724 176.642 272.677 177.297 274.549 178.614C276.42 179.931 277.069 181.931 276.501 184.613L274.251 195.219C274.11 195.88 274.029 196.411 274.008 196.817C273.986 197.224 274.013 197.598 274.094 197.95H264.817C264.742 197.451 264.715 196.947 264.736 196.443C264.758 195.939 264.828 195.414 264.942 194.877L264.947 194.883ZM265.997 188.932C262.762 188.932 260.517 189.133 259.257 189.539C257.996 189.946 257.261 190.65 257.044 191.664C256.898 192.352 257.071 192.888 257.558 193.273C258.045 193.658 258.808 193.848 259.852 193.848C261.55 193.848 262.908 193.468 263.919 192.704C264.931 191.94 265.602 190.791 265.926 189.252L265.997 188.927V188.932Z" fill="#231F20"/>
<path d="M285.475 190.71L285.432 190.91C285.216 191.935 285.372 192.677 285.908 193.127C286.443 193.577 287.45 193.804 288.926 193.804C290.078 193.804 290.998 193.647 291.685 193.338C292.367 193.029 292.772 192.574 292.902 191.983C293.01 191.485 292.87 191.095 292.486 190.818C292.101 190.542 291.268 190.282 289.981 190.038C289.413 189.929 288.58 189.783 287.482 189.593C283.928 188.987 281.532 188.277 280.299 187.469C279.622 187.025 279.146 186.429 278.887 185.686C278.622 184.944 278.589 184.115 278.784 183.199C279.255 180.988 280.715 179.313 283.171 178.181C285.627 177.048 289.013 176.479 293.329 176.479C297.267 176.479 300.085 177.043 301.784 178.17C303.482 179.297 304.099 180.999 303.629 183.28H294.622C294.779 182.402 294.622 181.784 294.162 181.416C293.697 181.053 292.788 180.869 291.442 180.869C290.625 180.869 289.959 181.004 289.446 181.275C288.932 181.546 288.623 181.925 288.521 182.408C288.418 182.879 288.591 183.258 289.029 183.551C289.467 183.844 290.533 184.174 292.22 184.554C292.81 184.689 293.627 184.873 294.676 185.101C297.543 185.708 299.344 186.196 300.08 186.559C301.319 187.155 302.163 187.838 302.617 188.613C303.071 189.388 303.185 190.314 302.952 191.398C302.46 193.717 300.935 195.479 298.387 196.671C295.834 197.863 292.323 198.459 287.855 198.459C283.387 198.459 280.342 197.841 278.557 196.606C276.772 195.37 276.16 193.43 276.723 190.786L276.739 190.704H285.47L285.475 190.71Z" fill="#231F20"/>
<path d="M317.649 198.465C312.435 198.465 308.686 197.549 306.414 195.712C304.137 193.875 303.385 191.16 304.148 187.556C304.9 184.006 306.825 181.297 309.925 179.422C313.024 177.547 317.146 176.609 322.29 176.609C327.434 176.609 331.178 177.541 333.471 179.411C335.765 181.28 336.533 184.006 335.77 187.599C335.018 191.149 333.098 193.847 330.015 195.695C326.931 197.543 322.81 198.47 317.649 198.47V198.465ZM318.504 193.847C320.305 193.847 321.825 193.295 323.075 192.189C324.324 191.084 325.157 189.539 325.574 187.556C325.996 185.572 325.817 184.023 325.044 182.901C324.27 181.779 322.994 181.221 321.225 181.221C319.456 181.221 318.022 181.774 316.811 182.879C315.599 183.985 314.782 185.529 314.36 187.513C313.933 189.523 314.079 191.084 314.804 192.189C315.523 193.295 316.757 193.847 318.498 193.847H318.504Z" fill="#231F20"/>
<path d="M335.191 197.955L338.864 180.63C339.016 179.931 339.113 179.281 339.173 178.685C339.227 178.094 339.248 177.579 339.227 177.146H349.223C349.282 177.471 349.282 177.899 349.223 178.43C349.163 178.961 349.044 179.655 348.866 180.506C350.397 179.2 351.949 178.224 353.534 177.59C355.114 176.956 356.785 176.642 358.543 176.642C361.789 176.642 364.087 177.444 365.434 179.048C366.781 180.652 367.127 183.004 366.473 186.093L363.958 197.955H353.983L356.433 186.396C356.769 184.803 356.698 183.643 356.212 182.917C355.725 182.191 354.794 181.822 353.415 181.822C351.798 181.822 350.489 182.31 349.477 183.28C348.471 184.25 347.757 185.719 347.346 187.675L345.166 197.955H335.191Z" fill="#231F20"/>
<path d="M395.19 191.441L393.806 197.961H366.938L373.272 168.107H383.901L378.952 191.441H395.19Z" fill="#231F20"/>
<path d="M394.498 197.955L398.912 177.151H408.93L404.516 197.955H394.498ZM399.539 174.198L400.832 168.107H410.85L409.557 174.198H399.539Z" fill="#231F20"/>
<path d="M410.304 197.955L413.668 182.088H408.757L409.806 177.151H414.718L415.356 174.154C415.832 171.916 416.941 170.263 418.694 169.207C420.446 168.15 422.913 167.619 426.104 167.619C426.948 167.619 427.868 167.662 428.863 167.749C429.858 167.836 430.945 167.971 432.13 168.144L431.178 172.637C430.772 172.626 430.313 172.604 429.788 172.588C429.263 172.567 428.96 172.556 428.879 172.556C427.684 172.556 426.818 172.751 426.277 173.141C425.736 173.531 425.352 174.263 425.131 175.325L424.746 177.146H430.231L429.182 182.083H423.697L420.333 197.95H410.315L410.304 197.955Z" fill="#231F20"/>
<path d="M431.194 191.501L433.271 181.703H427.619L428.69 176.642H434.342L435.148 172.837L445.686 169.803L444.236 176.642H449.91L448.839 181.703H443.165L441.466 189.696C441.228 190.818 441.358 191.604 441.85 192.054C442.343 192.509 443.333 192.731 444.804 192.731C445.128 192.731 445.48 192.72 445.864 192.699C446.248 192.677 446.665 192.65 447.108 192.607L446.043 197.625C444.62 197.896 443.295 198.102 442.061 198.242C440.828 198.383 439.692 198.454 438.654 198.454C435.435 198.454 433.25 197.923 432.108 196.855C430.962 195.788 430.659 193.999 431.189 191.49L431.194 191.501Z" fill="#231F20"/>
<path d="M462.568 197.955L465.732 183.031H467.133L464.223 196.752H471.974L471.72 197.955H462.568Z" fill="#231F20"/>
<path d="M475.707 195.246C475.566 195.923 475.577 196.395 475.745 196.671C475.912 196.947 476.264 197.088 476.799 197.088C476.983 197.088 477.173 197.072 477.373 197.039C477.573 197.007 477.778 196.964 477.995 196.904L477.757 198.036C477.443 198.096 477.156 198.145 476.902 198.177C476.643 198.21 476.426 198.226 476.253 198.226C475.409 198.226 474.82 198.026 474.49 197.619C474.154 197.213 474.079 196.606 474.246 195.798L475.788 188.542H473.667L473.878 187.55H475.999L476.459 185.372L477.914 184.814L477.335 187.545H479.769L479.558 188.537H477.124L475.701 195.235L475.707 195.246Z" fill="#231F20"/>
<path d="M491.15 183.031L488.548 195.305C488.532 195.381 488.478 195.712 488.386 196.297C488.294 196.882 488.202 197.435 488.11 197.955H486.752L487.055 196.237C486.449 196.915 485.822 197.408 485.178 197.722C484.535 198.037 483.821 198.194 483.031 198.194C481.651 198.194 480.656 197.706 480.045 196.725C479.428 195.75 479.298 194.438 479.645 192.796C480.007 191.084 480.694 189.74 481.7 188.775C482.706 187.811 483.912 187.323 485.319 187.323C486.092 187.323 486.742 187.48 487.272 187.8C487.796 188.119 488.213 188.602 488.516 189.257L489.836 183.036H491.155L491.15 183.031ZM487.753 192.737C488.04 191.393 487.953 190.336 487.504 189.566C487.055 188.797 486.298 188.407 485.238 188.407C484.178 188.407 483.301 188.786 482.571 189.55C481.841 190.314 481.327 191.398 481.029 192.796C480.743 194.156 480.808 195.224 481.235 195.993C481.662 196.763 482.398 197.148 483.447 197.148C484.497 197.148 485.411 196.758 486.174 195.977C486.936 195.197 487.466 194.118 487.758 192.731L487.753 192.737Z" fill="#231F20"/>
<path d="M490.945 197.955L491.329 196.156H493.005L492.621 197.955H490.945Z" fill="#231F20"/>
</g>
<path d="M152.192 285.746H124.238L116 349.726H163.042L164.64 337.327H145.545L152.192 285.746Z" fill="#F36C24"/>
<path d="M149.419 332.979H177.366L185.612 269H138.569L136.964 281.391H156.067L149.419 332.979Z" fill="#78777A"/>
<path d="M196.141 318.508L203.926 277.727H220.125L232.238 305.101L237.463 277.727H249.743L241.957 318.508H225.16L213.631 291.052L208.392 318.508H196.134H196.141Z" fill="#F36C24"/>
<path d="M263.585 319.199C257.171 319.199 252.574 317.947 249.78 315.437C246.985 312.934 246.058 309.213 246.992 304.297C247.919 299.454 250.283 295.741 254.092 293.181C257.901 290.622 262.965 289.338 269.284 289.338C275.603 289.338 280.207 290.614 283.024 293.165C285.848 295.716 286.789 299.446 285.855 304.346C284.928 309.196 282.571 312.877 278.784 315.404C274.997 317.931 269.926 319.191 263.585 319.191V319.199ZM264.629 312.893C266.84 312.893 268.715 312.138 270.247 310.626C271.779 309.115 272.801 307.003 273.319 304.297C273.837 301.591 273.618 299.47 272.67 297.935C271.721 296.399 270.152 295.643 267.978 295.643C265.803 295.643 264.045 296.399 262.556 297.91C261.068 299.422 260.061 301.534 259.55 304.24C259.025 306.986 259.207 309.115 260.09 310.626C260.973 312.138 262.491 312.893 264.636 312.893H264.629Z" fill="#F36C24"/>
<path d="M285.206 318.557L289.722 294.896C289.919 293.864 290.058 292.946 290.131 292.141C290.204 291.337 290.226 290.67 290.189 290.134H302.448C302.499 290.776 302.484 291.491 302.419 292.263C302.346 293.035 302.229 293.856 302.068 294.725C303.557 292.881 305.17 291.532 306.899 290.679C308.628 289.825 310.598 289.395 312.809 289.395C313.189 289.395 313.481 289.395 313.685 289.411C313.889 289.419 314.086 289.444 314.269 289.484L312.466 298.91C311.926 298.853 311.408 298.812 310.912 298.788C310.416 298.763 309.956 298.747 309.519 298.747C306.461 298.747 304.192 299.389 302.725 300.681C301.251 301.973 300.2 304.256 299.573 307.539L297.464 318.573H285.206V318.557Z" fill="#F36C24"/>
<path d="M318.946 309.684L321.5 296.301H314.553L315.874 289.387H322.821L323.813 284.186L336.758 280.042L334.977 289.387H341.946L340.625 296.301H333.656L331.569 307.222C331.278 308.749 331.438 309.822 332.044 310.44C332.649 311.057 333.861 311.366 335.678 311.366C336.072 311.366 336.509 311.35 336.984 311.325C337.458 311.301 337.961 311.252 338.509 311.203L337.203 318.061C335.459 318.427 333.824 318.711 332.314 318.906C330.803 319.101 329.402 319.199 328.125 319.199C324.171 319.199 321.485 318.467 320.084 317.013C318.676 315.559 318.304 313.113 318.953 309.684H318.946Z" fill="#F36C24"/>
<path d="M339.304 318.508L347.09 277.727H359.399L356.167 294.676C357.955 292.929 359.83 291.605 361.807 290.719C363.785 289.834 365.85 289.395 368.01 289.395C372.016 289.395 374.861 290.435 376.547 292.515C378.233 294.595 378.692 297.642 377.926 301.64L374.708 318.508H362.398L365.492 302.306C365.864 300.356 365.74 298.893 365.113 297.926C364.485 296.96 363.354 296.472 361.713 296.472C359.728 296.472 358.123 297.13 356.904 298.446C355.685 299.763 354.817 301.77 354.306 304.459L351.628 318.5H339.319L339.304 318.508Z" fill="#F36C24"/>
<path d="M391.294 306.897L391.17 307.531C390.812 309.391 391.016 310.781 391.775 311.691C392.534 312.601 393.87 313.056 395.789 313.056C397.343 313.056 398.62 312.739 399.627 312.105C400.626 311.471 401.341 310.521 401.772 309.27H412.965C412.185 312.455 410.12 314.941 406.778 316.704C403.436 318.476 399.116 319.361 393.833 319.361C387.806 319.361 383.618 318.175 381.268 315.794C378.926 313.413 378.24 309.676 379.21 304.573C380.152 299.633 382.443 295.863 386.091 293.254C389.732 290.646 394.526 289.346 400.473 289.346C405.968 289.346 409.813 290.711 412.017 293.441C414.213 296.171 414.789 300.283 413.746 305.767L413.527 306.905H391.294V306.897ZM403.684 300.892L403.757 300.502C404.056 298.918 403.822 297.699 403.042 296.854C402.261 296.009 400.991 295.578 399.233 295.578C397.474 295.578 395.898 296.009 394.723 296.878C393.548 297.748 392.812 298.975 392.505 300.551L392.439 300.884H403.684V300.892Z" fill="#F36C24"/>
<path d="M413.265 318.557L417.781 294.896C417.978 293.864 418.117 292.946 418.19 292.141C418.263 291.337 418.285 290.67 418.248 290.134H430.507C430.558 290.776 430.543 291.491 430.478 292.263C430.405 293.035 430.288 293.856 430.127 294.725C431.616 292.881 433.229 291.532 434.958 290.679C436.687 289.825 438.657 289.395 440.868 289.395C441.248 289.395 441.54 289.395 441.744 289.411C441.948 289.419 442.145 289.444 442.328 289.484L440.525 298.91C439.985 298.853 439.467 298.812 438.971 298.788C438.475 298.763 438.015 298.747 437.577 298.747C434.52 298.747 432.251 299.389 430.784 300.681C429.317 301.973 428.259 304.256 427.632 307.539L425.523 318.573H413.265V318.557Z" fill="#F36C24"/>
<path d="M438.19 318.508L442.707 294.839C442.889 293.88 443.014 292.994 443.087 292.182C443.152 291.369 443.174 290.67 443.152 290.077H455.433C455.506 290.516 455.506 291.109 455.433 291.832C455.36 292.564 455.221 293.506 454.995 294.668C456.877 292.881 458.789 291.556 460.73 290.687C462.671 289.817 464.729 289.387 466.889 289.387C470.88 289.387 473.704 290.484 475.36 292.677C477.017 294.871 477.44 298.081 476.637 302.298L473.543 318.5H461.285L464.298 302.712C464.714 300.535 464.619 298.95 464.028 297.959C463.437 296.968 462.284 296.464 460.592 296.464C458.607 296.464 456.994 297.13 455.754 298.455C454.513 299.779 453.638 301.778 453.134 304.451L450.456 318.492H438.198L438.19 318.508Z" fill="#F36C24"/>
<path d="M258.477 330.956L255.135 348.45H250.801L254.143 330.956H246.613L247.284 327.454H266.723L266.051 330.956H258.485H258.477Z" fill="#78777A"/>
<path d="M273.75 348.783C272.093 348.783 270.67 348.548 269.481 348.068C268.284 347.597 267.285 346.866 266.467 345.891C265.606 344.851 265.023 343.648 264.723 342.299C264.424 340.95 264.424 339.504 264.716 337.968C265.015 336.408 265.57 334.954 266.394 333.581C267.219 332.216 268.248 331.021 269.496 330.006C270.685 329.031 271.962 328.299 273.341 327.828C274.72 327.357 276.23 327.113 277.88 327.113C279.529 327.113 280.973 327.349 282.17 327.828C283.367 328.299 284.374 329.031 285.184 330.006C286.052 331.021 286.636 332.208 286.928 333.573C287.227 334.938 287.227 336.4 286.928 337.968C286.636 339.512 286.074 340.967 285.264 342.324C284.447 343.681 283.411 344.875 282.156 345.899C280.959 346.874 279.675 347.605 278.295 348.076C276.916 348.548 275.399 348.791 273.75 348.791V348.783ZM282.396 337.96C282.805 335.807 282.528 334.044 281.557 332.671C280.587 331.298 279.142 330.615 277.216 330.615C275.289 330.615 273.531 331.297 272.042 332.654C270.554 334.011 269.598 335.775 269.189 337.936C268.773 340.114 269.05 341.877 270.021 343.242C270.991 344.607 272.458 345.281 274.414 345.281C276.369 345.281 278.077 344.599 279.558 343.242C281.032 341.877 281.98 340.122 282.389 337.968L282.396 337.96Z" fill="#78777A"/>
<path d="M292.225 348.45L293.903 339.65L287.227 327.454H292.356L296.99 336.067L304.783 327.454H309.197L298.289 339.415L296.567 348.45H292.232H292.225Z" fill="#78777A"/>
<path d="M314.488 348.783C312.831 348.783 311.408 348.548 310.219 348.068C309.022 347.597 308.023 346.866 307.205 345.891C306.344 344.851 305.761 343.648 305.461 342.299C305.162 340.95 305.162 339.504 305.454 337.968C305.753 336.408 306.308 334.954 307.132 333.581C307.957 332.216 308.986 331.021 310.234 330.006C311.423 329.031 312.7 328.299 314.079 327.828C315.458 327.357 316.969 327.113 318.618 327.113C320.267 327.113 321.711 327.349 322.908 327.828C324.105 328.299 325.112 329.031 325.922 330.006C326.79 331.021 327.374 332.208 327.666 333.573C327.965 334.938 327.965 336.4 327.666 337.968C327.366 339.512 326.812 340.967 326.002 342.324C325.185 343.681 324.149 344.875 322.894 345.899C321.697 346.874 320.413 347.605 319.034 348.076C317.654 348.548 316.137 348.791 314.488 348.791V348.783ZM323.134 337.96C323.543 335.807 323.266 334.044 322.295 332.671C321.325 331.298 319.88 330.615 317.954 330.615C316.027 330.615 314.269 331.297 312.78 332.654C311.292 334.011 310.336 335.775 309.927 337.936C309.511 340.114 309.789 341.877 310.759 343.242C311.729 344.607 313.196 345.281 315.152 345.281C317.107 345.281 318.815 344.599 320.296 343.242C321.777 341.877 322.718 340.122 323.127 337.968L323.134 337.96Z" fill="#78777A"/>
<path d="M340.873 330.956L337.531 348.45H333.197L336.539 330.956H329.008L329.68 327.454H349.118L348.447 330.956H340.88H340.873Z" fill="#78777A"/>
<path d="M342.682 348.45L356.335 327.454H361.632L367.01 348.45H362.143L360.961 343.299H350.454L347.279 348.45H342.682ZM352.679 339.772H360.173L358.261 331.103L352.679 339.772Z" fill="#78777A"/>
<path d="M371.906 327.454H376.24L372.847 345.216H383.107L382.494 348.45H367.9L371.906 327.454Z" fill="#78777A"/>
<path d="M387.704 327.454H392.118L388.112 348.45H383.698L387.704 327.454Z" fill="#78777A"/>
<path d="M392.279 348.45L396.285 327.454H411.623L411.017 330.648H399.897L398.912 335.832H409.134L408.507 339.13H398.284L396.504 348.458H392.286L392.279 348.45Z" fill="#78777A"/>
<path d="M422.699 330.956L419.357 348.45H415.023L418.365 330.956H410.835L411.506 327.454H430.945L430.273 330.956H422.706H422.699Z" fill="#78777A"/>
<defs>
<clipPath id="clip0_299_438">
<rect width="383" height="71.8796" fill="white" transform="translate(110 141)"/>
</clipPath>
</defs>
</svg>
