<?xml version="1.0" encoding="UTF-8"?>
<svg xmlns="http://www.w3.org/2000/svg" version="1.1" viewBox="0 0 603 350">
  <defs>
    <style>
      .cls-1 {
        fill: #f16622;
      }

      .cls-2 {
        fill: #f26d21;
      }

      .cls-3 {
        fill: #f36c24;
      }

      .cls-4 {
        fill: #78777a;
      }
    </style>
  </defs>
  <!-- Generator: Adobe Illustrator 28.7.1, SVG Export Plug-In . SVG Version: 1.2.0 Build 142)  -->
  <g>
    <g id="Layer_1">
      <g>
        <g>
          <polygon class="cls-3" points="137.2 90.6 48.3 90.6 22.1 273.1 171.7 273.1 176.6 237.9 115.9 237.9 137.2 90.6"/>
          <polygon class="cls-4" points="128.4 225.4 217.1 225.4 243.3 42.9 93.9 42.9 88.7 78.3 149.4 78.3 128.4 225.4"/>
        </g>
        <path class="cls-1" d="M336.7,42.8l-1,7.2h18l1-7.2h-18ZM378.2,53c.2-1.5.9-2.6,2-3.3,1.1-.7,2.2-1,4.5-1s1.4,0,2.8.2c.9,0,1.7.1,2.2.2l.9-6.6c-1.8-.1-3.3-.2-4.7-.2h-3.3c-7.2,0-12.1.7-15.4,2-3.3,1.4-5.2,3.4-5.6,6.4l-.6,3.9h-6.6l-.9,6.6h6.2l-3,20.5h17.1l3-20.5h5.2l.9-6.6h-5.2l.2-1.5h.3ZM321.9,42.8h-18.9l-5.5,38.9h31.8l1-7.5h-12.9l4.5-31.3h-.1ZM331.4,81.6h17.6l3.9-27.1h-17.6l-3.9,27.1ZM410.5,75.5c-2.3,0-3.9-.2-4.8-.7s-1.3-1.3-1.1-2.4l1.6-11.5h11.3l.9-6.4h-11l1.6-9.2-17-.6-1.8,9.8h-5.3l-.9,6.4h5.3l-2,13.5c-.3,2.6.7,4.6,3.2,5.9s6.6,1.8,12.1,1.8,3.6,0,5.5-.1c2,0,4.1-.2,6.3-.3l.9-6.2h-4.9.2ZM464.5,57.5c-4.4-2.4-10.9-3.7-19.7-3.7s-15.7,1.3-20.8,3.7c-5.1,2.5-7.9,6-8.6,10.6s1.3,8,5.6,10.6,11,3.7,19.8,3.7,15.6-1.3,20.7-3.7,7.9-6,8.6-10.6-1.3-8-5.6-10.6ZM451.7,67.9c-.5,3.1-1.5,5.3-3.1,6.7-1.6,1.4-3.9,2.1-7,2.1s-5.3-.7-6.4-2.1c-1.1-1.4-1.6-3.6-1.1-6.7s1.5-5.3,3.1-6.7c1.6-1.4,3.9-2.1,7-2.1s5.3.7,6.4,2.1c1.3,1.4,1.6,3.6,1.1,6.7ZM529.6,54.8l-9.9,18.3-4.6-18.3h-17.2l-9.5,17.9-4.5-17.9h-15.7l8.9,26.4h17.2l10.2-17.4,5.2,17.4h17.6l16.3-26.4h-14,.1Z"/>
        <g>
          <path class="cls-2" d="M260.1,168l7.9-37.5h21.7l5.1,23.2,14.7-23.2h20.2l-7.9,37.5h-12.5l6.4-30.1-19.5,30.1h-10l-7.1-30.1-6.4,30.1h-12.5,0Z"/>
          <path class="cls-2" d="M348.5,164.2c-1.5,1.5-3.3,2.6-5.4,3.3-2.1.7-4.5,1-7.1,1-3.9,0-6.7-.7-8.5-2s-2.4-3.2-2-5.6c.7-3.3,3-5.6,6.9-7.1s10.1-2.2,18.5-2.3v-.7c.2-1.4,0-2.3-.6-3-.7-.7-1.8-1-3.6-1s-2.8.2-3.7.7-1.6,1.1-2,2.2h-11.6c.7-2.9,2.5-5.1,5.6-6.4,3.1-1.4,7.6-2.1,13.3-2.1s9.4.8,11.8,2.5c2.3,1.6,3.2,4.1,2.4,7.5l-2.9,13.3c-.2.8-.2,1.5-.3,2s0,1,0,1.4h-11.6c0-.6-.1-1.3,0-1.8,0-.7.1-1.3.2-2h.3ZM349.7,156.8c-4,0-6.9.2-8.5.8-1.6.5-2.5,1.4-2.8,2.6-.2.9,0,1.5.7,2.1.6.5,1.6.7,2.9.7,2.2,0,3.8-.5,5.1-1.4,1.3-.9,2.1-2.4,2.5-4.4v-.5h.1Z"/>
          <path class="cls-2" d="M374.2,158.9v.2c-.3,1.3-.1,2.2.6,2.8s2,.8,3.8.8,2.6-.2,3.4-.6,1.4-.9,1.5-1.7c.1-.6,0-1.1-.6-1.5-.5-.3-1.5-.7-3.1-.9-.7-.1-1.7-.3-3.1-.6-4.5-.8-7.5-1.6-9.1-2.6-.8-.6-1.5-1.3-1.7-2.2-.3-.9-.3-2-.1-3.1.6-2.8,2.4-4.8,5.5-6.3,3.1-1.4,7.4-2.2,12.8-2.2s8.5.7,10.6,2.1c2.2,1.4,2.9,3.6,2.3,6.4h-11.3c.2-1.1,0-1.8-.6-2.3s-1.7-.7-3.4-.7-1.8.1-2.5.5c-.7.3-1,.8-1.1,1.4s0,1,.7,1.4c.6.3,1.8.8,4,1.3.7.1,1.7.3,3.1.7,3.6.8,5.9,1.4,6.8,1.8,1.6.7,2.6,1.6,3.2,2.5s.7,2.2.5,3.4c-.6,2.9-2.5,5.1-5.7,6.7-3.2,1.5-7.6,2.3-13.2,2.3s-9.4-.8-11.7-2.3c-2.2-1.5-3-4-2.3-7.2h10.9Z"/>
          <path class="cls-2" d="M414.7,168.7c-6.6,0-11.3-1.1-14.1-3.4s-3.8-5.7-2.9-10.2,3.3-7.8,7.2-10.2c3.9-2.3,9.1-3.6,15.5-3.6s11.2,1.1,14,3.6c2.9,2.3,3.8,5.7,2.9,10.2s-3.3,7.8-7.2,10.1c-3.9,2.3-9.1,3.4-15.5,3.4h.1ZM415.7,162.9c2.3,0,4.1-.7,5.7-2.1s2.6-3.3,3.1-5.9c.6-2.5.3-4.5-.7-5.9-.9-1.4-2.5-2.1-4.8-2.1s-4,.7-5.5,2.1-2.5,3.3-3.1,5.9c-.6,2.5-.3,4.5.6,5.9.9,1.4,2.4,2.1,4.6,2.1h.1Z"/>
          <path class="cls-2" d="M436.8,168l4.6-21.7c.2-.9.3-1.7.3-2.4v-2h12.5v1.6c0,.7-.2,1.5-.5,2.6,2-1.6,3.9-2.9,5.9-3.7,2-.8,4.1-1.1,6.3-1.1,4,0,7,1,8.6,3,1.7,2.1,2.1,4.9,1.3,8.9l-3.2,14.8h-12.5l3.1-14.5c.5-2,.3-3.4-.2-4.4s-1.7-1.4-3.6-1.4-3.7.6-4.9,1.8-2.2,3.1-2.6,5.5l-2.8,12.9h-12.5.2Z"/>
          <path class="cls-2" d="M512.1,159.9l-1.7,8.2h-33.8l7.9-37.5h13.3l-6.2,29.3h20.5Z"/>
          <path class="cls-2" d="M511.3,168l5.5-26.1h12.5l-5.5,26.1h-12.5ZM517.6,138.3l1.6-7.6h12.5l-1.6,7.6h-12.5Z"/>
          <path class="cls-2" d="M531.1,168l4.3-19.9h-6.2l1.3-6.2h6.2l.8-3.8c.6-2.8,2-4.8,4.1-6.2,2.2-1.4,5.3-2,9.3-2s2.2,0,3.4.1c1.3,0,2.6.2,4.1.5l-1.1,5.6h-2.9c-1.5,0-2.6.2-3.2.7-.7.5-1.1,1.4-1.5,2.8l-.5,2.3h6.9l-1.3,6.2h-6.9l-4.3,19.9h-12.6Z"/>
          <path class="cls-2" d="M557.4,160l2.6-12.3h-7.1l1.4-6.3h7.1l1-4.8,13.2-3.8-1.8,8.6h7.1l-1.4,6.3h-7.1l-2.2,10c-.3,1.4-.1,2.4.5,3,.6.6,1.8.8,3.7.8s.8,0,1.4,0h1.6l-1.4,6.3c-1.8.3-3.4.6-5.1.8-1.5.2-3,.2-4.3.2-4,0-6.8-.7-8.3-2-1.5-1.4-1.8-3.6-1.1-6.8h.1Z"/>
        </g>
        <g>
          <g>
            <path class="cls-3" d="M279.7,244.7l7.8-36.8h16.2l12.2,24.7,5.3-24.7h12.3l-7.8,36.8h-16.9l-11.6-24.7-5.3,24.7h-12.3.1Z"/>
            <path class="cls-3" d="M347.4,245.3c-6.4,0-11-1.1-13.9-3.3-2.8-2.3-3.8-5.6-2.8-10,.9-4.4,3.3-7.7,7.1-10s8.9-3.4,15.3-3.4,10.9,1.1,13.8,3.4,3.8,5.6,2.9,10.1c-.9,4.4-3.3,7.7-7.1,10s-8.9,3.4-15.3,3.4v-.2ZM348.5,239.6c2.2,0,4.1-.7,5.6-2.1,1.5-1.4,2.5-3.2,3.1-5.7.6-2.4.3-4.4-.7-5.7-.9-1.4-2.5-2.1-4.7-2.1s-3.9.7-5.4,2.1-2.5,3.2-3,5.7c-.6,2.5-.3,4.4.6,5.7.9,1.4,2.4,2.1,4.6,2.1h-.1Z"/>
            <path class="cls-3" d="M369,244.7l4.5-21.4c.2-.9.3-1.7.5-2.5v-1.8h12.3v2c0,.7-.2,1.5-.3,2.2,1.5-1.6,3.1-2.9,4.8-3.7s3.7-1.1,6-1.1.7,0,.9,0h.6l-1.8,8.5h-3c-3.1,0-5.3.6-6.8,1.7-1.5,1.1-2.5,3.2-3.1,6.2l-2.1,10h-12.4Z"/>
            <path class="cls-3" d="M402.9,236.8l2.5-12.1h-7l1.4-6.2h7l1-4.7,13-3.8-1.8,8.4h7l-1.4,6.2h-7l-2.1,9.9c-.3,1.4-.1,2.3.5,2.9s1.8.8,3.7.8.8,0,1.3,0h1.5l-1.3,6.2c-1.7.3-3.3.6-4.9.8-1.5.2-2.9.2-4.3.2-4,0-6.7-.7-8-2s-1.8-3.6-1.1-6.6h.1Z"/>
            <path class="cls-3" d="M423.4,244.7l7.8-36.8h12.3l-3.2,15.3c1.8-1.6,3.7-2.8,5.6-3.6,2-.8,4-1.1,6.2-1.1,4,0,6.9.9,8.6,2.8,1.7,1.8,2.2,4.6,1.4,8.3l-3.2,15.2h-12.3l3.1-14.6c.3-1.7.2-3.1-.3-3.9-.6-.9-1.7-1.3-3.4-1.3s-3.6.6-4.8,1.8c-1.3,1.1-2.1,3-2.6,5.4l-2.6,12.6h-12.4Z"/>
            <path class="cls-3" d="M475.6,234.2v.6c-.5,1.7-.2,2.9.5,3.8.8.8,2.1,1.3,4,1.3s2.9-.2,3.8-.8c1-.6,1.7-1.4,2.2-2.5h11.3c-.8,2.9-2.9,5.1-6.2,6.7s-7.7,2.4-13,2.4-10.2-1-12.6-3.2c-2.3-2.2-3-5.5-2.1-10.1.9-4.5,3.2-7.8,6.9-10.2,3.7-2.3,8.5-3.6,14.5-3.6s9.4,1.3,11.6,3.7c2.2,2.4,2.8,6.2,1.7,11.2l-.2,1h-22.3,0ZM488,228.8v-.3c.3-1.4.1-2.5-.7-3.3-.8-.8-2.1-1.1-3.8-1.1s-3.3.3-4.5,1.1-2,1.8-2.2,3.3v.3h11.3-.1Z"/>
            <path class="cls-3" d="M497.7,244.7l4.5-21.4c.2-.9.3-1.7.5-2.5v-1.8h12.3v2c0,.7-.2,1.5-.3,2.2,1.5-1.6,3.1-2.9,4.8-3.7s3.7-1.1,6-1.1.7,0,.9,0h.6l-1.8,8.5h-3c-3.1,0-5.3.6-6.8,1.7s-2.5,3.2-3.1,6.2l-2.1,10h-12.4Z"/>
            <path class="cls-3" d="M522.6,244.7l4.5-21.4c.2-.9.3-1.6.3-2.4v-1.8h12.3v1.6c0,.7-.2,1.5-.5,2.5,1.8-1.6,3.8-2.8,5.7-3.6s4-1.1,6.2-1.1c4,0,6.8,1,8.5,3,1.6,2,2.1,4.8,1.3,8.6l-3.1,14.6h-12.3l3-14.3c.5-2,.3-3.3-.2-4.3s-1.7-1.4-3.4-1.4-3.6.6-4.8,1.8c-1.3,1.1-2.1,3-2.6,5.4l-2.6,12.6h-12.3.1Z"/>
          </g>
          <g>
            <path class="cls-4" d="M339.9,257.1l-3.3,15.7h-4.4l3.3-15.7h-7.6l.7-3.1h19.5l-.7,3.1h-7.6Z"/>
            <path class="cls-4" d="M355.2,273.1c-1.6,0-3.1-.2-4.3-.7s-2.2-1-3-2c-.9-.9-1.5-2.1-1.7-3.2-.3-1.3-.3-2.5,0-3.9.3-1.4.8-2.8,1.7-3.9.8-1.3,1.8-2.3,3.1-3.2,1.1-.9,2.5-1.5,3.9-2,1.4-.5,2.9-.7,4.6-.7s3.1.2,4.3.7,2.2,1,3,2c.9.9,1.5,2,1.7,3.2.3,1.3.3,2.5,0,3.9-.3,1.4-.8,2.8-1.7,3.9-.8,1.3-1.8,2.3-3.1,3.2-1.1.9-2.5,1.5-3.9,2-1.4.5-2.9.7-4.6.7ZM363.9,263.5c.5-2,.1-3.6-.8-4.7-.9-1.3-2.4-1.8-4.4-1.8s-3.7.6-5.2,1.8-2.4,2.8-2.9,4.7-.1,3.6.8,4.8,2.4,1.8,4.4,1.8,3.7-.6,5.2-1.8,2.4-2.8,2.9-4.7h0Z"/>
            <path class="cls-4" d="M373.8,272.9l1.7-7.9-6.7-11h5.2l4.6,7.8,7.8-7.8h4.5l-10.9,10.8-1.7,8.2h-4.5Z"/>
            <path class="cls-4" d="M396.1,273.1c-1.6,0-3.1-.2-4.3-.7s-2.2-1-3-2c-.9-.9-1.5-2.1-1.7-3.2-.3-1.3-.3-2.5,0-3.9.3-1.4.8-2.8,1.7-3.9.8-1.3,1.8-2.3,3.1-3.2,1.1-.9,2.5-1.5,3.9-2,1.4-.5,2.9-.7,4.6-.7s3.1.2,4.3.7,2.2,1,3,2c.9.9,1.5,2,1.7,3.2.3,1.3.3,2.5,0,3.9-.3,1.4-.8,2.8-1.7,3.9-.8,1.3-1.8,2.3-3.1,3.2-1.1.9-2.5,1.5-3.9,2-1.4.5-2.9.7-4.6.7ZM404.9,263.5c.5-2,.1-3.6-.8-4.7-.9-1.3-2.4-1.8-4.4-1.8s-3.7.6-5.2,1.8-2.4,2.8-2.9,4.7-.1,3.6.8,4.8,2.4,1.8,4.4,1.8,3.7-.6,5.2-1.8,2.4-2.8,2.9-4.7h0Z"/>
            <path class="cls-4" d="M422.6,257.1l-3.3,15.7h-4.4l3.3-15.7h-7.6l.7-3.1h19.5l-.7,3.1h-7.6Z"/>
            <path class="cls-4" d="M424.4,272.9l13.7-19h5.3l5.4,19h-4.9l-1.1-4.6h-10.6l-3.2,4.6h-4.6.1ZM434.5,265.1h7.5l-2-7.8-5.6,7.8h.1Z"/>
            <path class="cls-4" d="M453.7,253.9h4.4l-3.4,16h10.3l-.6,2.9h-14.6l4-19h-.1Z"/>
            <path class="cls-4" d="M469.6,253.9h4.5l-4,19h-4.5l4-19Z"/>
            <path class="cls-4" d="M474.2,272.9l4-19h15.4l-.6,2.9h-11.2l-1,4.7h10.2l-.7,3h-10.2l-1.8,8.4h-4.3.1Z"/>
            <path class="cls-4" d="M504.8,257.1l-3.3,15.7h-4.4l3.3-15.7h-7.6l.7-3.1h19.5l-.7,3.1h-7.6Z"/>
          </g>
        </g>
      </g>
      <g>
        <g>
          <path class="cls-4" d="M179.2,321.3v-3.4h-3v-1.6h4.8v5.8c-1.1,1.1-2.9,1.5-5,1.5-4.1,0-6.5-2.8-6.5-6.5s2.3-6.5,6.5-6.5,3.7.5,4.9,1.5l-.9,1.2c-1.2-.8-2.5-1.2-4-1.2-3.1,0-4.6,2.2-4.6,5s1.6,5,4.6,5,2.5-.3,3.2-.8Z"/>
          <path class="cls-4" d="M186.7,323.4v-12.6h5.4c2.9,0,4.3,1.5,4.3,3.7s-1.4,3.3-3.1,3.6l3.1,5.3h-2l-3-5.2h-2.9v5.2h-1.8ZM188.4,312.3v4.5h3.6c1.8,0,2.5-1,2.5-2.3s-.7-2.3-2.5-2.3h-3.6Z"/>
          <path class="cls-4" d="M201.6,317.1c0-3.7,2.3-6.5,6.5-6.5s6.5,2.8,6.5,6.5-2.3,6.5-6.5,6.5-6.5-2.8-6.5-6.5ZM212.7,317.1c0-2.8-1.6-5-4.6-5s-4.6,2.2-4.6,5,1.6,5,4.6,5,4.6-2.2,4.6-5Z"/>
          <path class="cls-4" d="M228.8,318v-7.1h1.7v7.1c0,3.5-1.6,5.6-5.2,5.6s-5.2-2.2-5.2-5.6v-7.1h1.7v7.1c0,2.4.9,4.2,3.5,4.2s3.5-1.8,3.5-4.2Z"/>
          <path class="cls-4" d="M236.5,323.4v-12.6h5.4c3,0,4.4,1.5,4.4,4s-1.5,4-4.4,4h-3.6v4.6h-1.8ZM238.2,312.3v5.1h3.6c2,0,2.6-1.1,2.6-2.5s-.6-2.5-2.6-2.5h-3.6Z"/>
          <path class="cls-4" d="M260.2,317.1c0-3.7,2.3-6.5,6.5-6.5s6.5,2.8,6.5,6.5-2.3,6.5-6.5,6.5-6.5-2.8-6.5-6.5ZM271.4,317.1c0-2.8-1.6-5-4.6-5s-4.6,2.2-4.6,5,1.6,5,4.6,5,4.6-2.2,4.6-5Z"/>
          <path class="cls-4" d="M287,316.3v1.5h-6.5v5.7h-1.7v-12.6h8.6v1.5h-6.8v4h6.5,0Z"/>
          <path class="cls-4" d="M307.8,310.6c1.9,0,3.4.5,4.3,1.3l-.9,1.2c-.7-.5-1.8-1-3.5-1-3.1,0-4.6,2.2-4.6,5s1.6,5,4.6,5,2.8-.5,3.5-1l.9,1.2c-1,.8-2.4,1.3-4.3,1.3-4.1,0-6.5-2.8-6.5-6.5s2.3-6.5,6.5-6.5Z"/>
          <path class="cls-4" d="M316.7,317.1c0-3.7,2.3-6.5,6.5-6.5s6.5,2.8,6.5,6.5-2.3,6.5-6.5,6.5-6.5-2.8-6.5-6.5ZM327.8,317.1c0-2.8-1.6-5-4.6-5s-4.6,2.2-4.6,5,1.6,5,4.6,5,4.6-2.2,4.6-5Z"/>
          <path class="cls-4" d="M341.8,320.9l4.4-10.1h2.2v12.6h-1.7v-9.4l-4.1,9.4h-1.5l-4.1-9.4v9.4h-1.7v-12.6h2.2l4.4,10.1h-.1Z"/>
          <path class="cls-4" d="M354.3,323.4v-12.6h5.4c3,0,4.4,1.5,4.4,4s-1.5,4-4.4,4h-3.6v4.6h-1.8ZM356,312.3v5.1h3.6c2,0,2.6-1.1,2.6-2.5s-.6-2.5-2.6-2.5h-3.6Z"/>
          <path class="cls-4" d="M367.4,323.4l5.4-12.6h1.5l5.4,12.6h-1.9l-1.5-3.6h-5.6l-1.5,3.6h-1.9,0ZM373.6,313.2l-2.2,5.2h4.4l-2.2-5.2Z"/>
          <path class="cls-4" d="M384.8,310.8h2l6.7,9.9v-9.9h1.7v12.6h-2l-6.7-9.9v9.9h-1.7v-12.6Z"/>
          <path class="cls-4" d="M401.1,310.8h1.7v12.6h-1.7v-12.6Z"/>
          <path class="cls-4" d="M417,316.3v1.5h-6.5v4.2h6.9v1.5h-8.7v-12.6h8.6v1.5h-6.8v4h6.5Z"/>
          <path class="cls-4" d="M430.9,312.9c-1.2-.6-2.2-.8-3.5-.8-1.9,0-2.7.7-2.7,1.8s.9,1.7,3,2.2c3.1.7,4.7,1.7,4.7,3.9s-1.7,3.6-4.7,3.6-3.9-.5-5.2-1.3l.8-1.2c1.1.6,2.6,1.1,4.3,1.1s2.9-1,2.9-2.2-.8-1.8-3.2-2.3c-3.3-.7-4.5-1.9-4.5-3.7s1.1-3.3,4.5-3.3,3.1.3,4.3,1l-.8,1.2h.1Z"/>
        </g>
        <rect class="cls-4" x="454.3" y="317.7" width="126.1" height="1.1"/>
        <rect class="cls-4" x="22.6" y="317.7" width="126.1" height="1.1"/>
      </g>
    </g>
  </g>
</svg>